<?xml version="1.0" encoding="utf-8" standalone="no"?>
<!DOCTYPE svg PUBLIC "-//W3C//DTD SVG 1.1//EN"
  "http://www.w3.org/Graphics/SVG/1.1/DTD/svg11.dtd">
<svg xmlns:xlink="http://www.w3.org/1999/xlink" width="720pt" height="432pt" viewBox="0 0 720 432" xmlns="http://www.w3.org/2000/svg" version="1.1">
 <metadata>
  <rdf:RDF xmlns:dc="http://purl.org/dc/elements/1.1/" xmlns:cc="http://creativecommons.org/ns#" xmlns:rdf="http://www.w3.org/1999/02/22-rdf-syntax-ns#">
   <cc:Work>
    <dc:type rdf:resource="http://purl.org/dc/dcmitype/StillImage"/>
    <dc:date>2024-11-27T21:24:44.424085</dc:date>
    <dc:format>image/svg+xml</dc:format>
    <dc:creator>
     <cc:Agent>
      <dc:title>Matplotlib v3.9.2, https://matplotlib.org/</dc:title>
     </cc:Agent>
    </dc:creator>
   </cc:Work>
  </rdf:RDF>
 </metadata>
 <defs>
  <style type="text/css">*{stroke-linejoin: round; stroke-linecap: butt}</style>
 </defs>
 <g id="figure_1">
  <g id="patch_1">
   <path d="M 0 432 
L 720 432 
L 720 0 
L 0 0 
z
" style="fill: #ffffff"/>
  </g>
  <g id="axes_1">
   <g id="patch_2">
    <path d="M 90 384.48 
L 648 384.48 
L 648 51.84 
L 90 51.84 
z
" style="fill: #ffffff"/>
   </g>
   <g id="matplotlib.axis_1">
    <g id="xtick_1">
     <g id="line2d_1">
      <path d="M 110.239669 384.48 
L 110.239669 51.84 
" clip-path="url(#p8a0a67ac4b)" style="fill: none; stroke: #b0b0b0; stroke-width: 0.8; stroke-linecap: square"/>
     </g>
     <g id="line2d_2">
      <defs>
       <path id="m4e072ef22a" d="M 0 0 
L 0 3.5 
" style="stroke: #000000; stroke-width: 0.8"/>
      </defs>
      <g>
       <use xlink:href="#m4e072ef22a" x="110.239669" y="384.48" style="stroke: #000000; stroke-width: 0.8"/>
      </g>
     </g>
     <g id="text_1">
      <!-- 0 -->
      <g transform="translate(107.058419 399.078438) scale(0.1 -0.1)">
       <defs>
        <path id="DejaVuSans-30" d="M 2034 4250 
Q 1547 4250 1301 3770 
Q 1056 3291 1056 2328 
Q 1056 1369 1301 889 
Q 1547 409 2034 409 
Q 2525 409 2770 889 
Q 3016 1369 3016 2328 
Q 3016 3291 2770 3770 
Q 2525 4250 2034 4250 
z
M 2034 4750 
Q 2819 4750 3233 4129 
Q 3647 3509 3647 2328 
Q 3647 1150 3233 529 
Q 2819 -91 2034 -91 
Q 1250 -91 836 529 
Q 422 1150 422 2328 
Q 422 3509 836 4129 
Q 1250 4750 2034 4750 
z
" transform="scale(0.015625)"/>
       </defs>
       <use xlink:href="#DejaVuSans-30"/>
      </g>
     </g>
    </g>
    <g id="xtick_2">
     <g id="line2d_3">
      <path d="M 212.719008 384.48 
L 212.719008 51.84 
" clip-path="url(#p8a0a67ac4b)" style="fill: none; stroke: #b0b0b0; stroke-width: 0.8; stroke-linecap: square"/>
     </g>
     <g id="line2d_4">
      <g>
       <use xlink:href="#m4e072ef22a" x="212.719008" y="384.48" style="stroke: #000000; stroke-width: 0.8"/>
      </g>
     </g>
     <g id="text_2">
      <!-- 20 -->
      <g transform="translate(206.356508 399.078438) scale(0.1 -0.1)">
       <defs>
        <path id="DejaVuSans-32" d="M 1228 531 
L 3431 531 
L 3431 0 
L 469 0 
L 469 531 
Q 828 903 1448 1529 
Q 2069 2156 2228 2338 
Q 2531 2678 2651 2914 
Q 2772 3150 2772 3378 
Q 2772 3750 2511 3984 
Q 2250 4219 1831 4219 
Q 1534 4219 1204 4116 
Q 875 4013 500 3803 
L 500 4441 
Q 881 4594 1212 4672 
Q 1544 4750 1819 4750 
Q 2544 4750 2975 4387 
Q 3406 4025 3406 3419 
Q 3406 3131 3298 2873 
Q 3191 2616 2906 2266 
Q 2828 2175 2409 1742 
Q 1991 1309 1228 531 
z
" transform="scale(0.015625)"/>
       </defs>
       <use xlink:href="#DejaVuSans-32"/>
       <use xlink:href="#DejaVuSans-30" x="63.623047"/>
      </g>
     </g>
    </g>
    <g id="xtick_3">
     <g id="line2d_5">
      <path d="M 315.198347 384.48 
L 315.198347 51.84 
" clip-path="url(#p8a0a67ac4b)" style="fill: none; stroke: #b0b0b0; stroke-width: 0.8; stroke-linecap: square"/>
     </g>
     <g id="line2d_6">
      <g>
       <use xlink:href="#m4e072ef22a" x="315.198347" y="384.48" style="stroke: #000000; stroke-width: 0.8"/>
      </g>
     </g>
     <g id="text_3">
      <!-- 40 -->
      <g transform="translate(308.835847 399.078438) scale(0.1 -0.1)">
       <defs>
        <path id="DejaVuSans-34" d="M 2419 4116 
L 825 1625 
L 2419 1625 
L 2419 4116 
z
M 2253 4666 
L 3047 4666 
L 3047 1625 
L 3713 1625 
L 3713 1100 
L 3047 1100 
L 3047 0 
L 2419 0 
L 2419 1100 
L 313 1100 
L 313 1709 
L 2253 4666 
z
" transform="scale(0.015625)"/>
       </defs>
       <use xlink:href="#DejaVuSans-34"/>
       <use xlink:href="#DejaVuSans-30" x="63.623047"/>
      </g>
     </g>
    </g>
    <g id="xtick_4">
     <g id="line2d_7">
      <path d="M 417.677686 384.48 
L 417.677686 51.84 
" clip-path="url(#p8a0a67ac4b)" style="fill: none; stroke: #b0b0b0; stroke-width: 0.8; stroke-linecap: square"/>
     </g>
     <g id="line2d_8">
      <g>
       <use xlink:href="#m4e072ef22a" x="417.677686" y="384.48" style="stroke: #000000; stroke-width: 0.8"/>
      </g>
     </g>
     <g id="text_4">
      <!-- 60 -->
      <g transform="translate(411.315186 399.078438) scale(0.1 -0.1)">
       <defs>
        <path id="DejaVuSans-36" d="M 2113 2584 
Q 1688 2584 1439 2293 
Q 1191 2003 1191 1497 
Q 1191 994 1439 701 
Q 1688 409 2113 409 
Q 2538 409 2786 701 
Q 3034 994 3034 1497 
Q 3034 2003 2786 2293 
Q 2538 2584 2113 2584 
z
M 3366 4563 
L 3366 3988 
Q 3128 4100 2886 4159 
Q 2644 4219 2406 4219 
Q 1781 4219 1451 3797 
Q 1122 3375 1075 2522 
Q 1259 2794 1537 2939 
Q 1816 3084 2150 3084 
Q 2853 3084 3261 2657 
Q 3669 2231 3669 1497 
Q 3669 778 3244 343 
Q 2819 -91 2113 -91 
Q 1303 -91 875 529 
Q 447 1150 447 2328 
Q 447 3434 972 4092 
Q 1497 4750 2381 4750 
Q 2619 4750 2861 4703 
Q 3103 4656 3366 4563 
z
" transform="scale(0.015625)"/>
       </defs>
       <use xlink:href="#DejaVuSans-36"/>
       <use xlink:href="#DejaVuSans-30" x="63.623047"/>
      </g>
     </g>
    </g>
    <g id="xtick_5">
     <g id="line2d_9">
      <path d="M 520.157025 384.48 
L 520.157025 51.84 
" clip-path="url(#p8a0a67ac4b)" style="fill: none; stroke: #b0b0b0; stroke-width: 0.8; stroke-linecap: square"/>
     </g>
     <g id="line2d_10">
      <g>
       <use xlink:href="#m4e072ef22a" x="520.157025" y="384.48" style="stroke: #000000; stroke-width: 0.8"/>
      </g>
     </g>
     <g id="text_5">
      <!-- 80 -->
      <g transform="translate(513.794525 399.078438) scale(0.1 -0.1)">
       <defs>
        <path id="DejaVuSans-38" d="M 2034 2216 
Q 1584 2216 1326 1975 
Q 1069 1734 1069 1313 
Q 1069 891 1326 650 
Q 1584 409 2034 409 
Q 2484 409 2743 651 
Q 3003 894 3003 1313 
Q 3003 1734 2745 1975 
Q 2488 2216 2034 2216 
z
M 1403 2484 
Q 997 2584 770 2862 
Q 544 3141 544 3541 
Q 544 4100 942 4425 
Q 1341 4750 2034 4750 
Q 2731 4750 3128 4425 
Q 3525 4100 3525 3541 
Q 3525 3141 3298 2862 
Q 3072 2584 2669 2484 
Q 3125 2378 3379 2068 
Q 3634 1759 3634 1313 
Q 3634 634 3220 271 
Q 2806 -91 2034 -91 
Q 1263 -91 848 271 
Q 434 634 434 1313 
Q 434 1759 690 2068 
Q 947 2378 1403 2484 
z
M 1172 3481 
Q 1172 3119 1398 2916 
Q 1625 2713 2034 2713 
Q 2441 2713 2670 2916 
Q 2900 3119 2900 3481 
Q 2900 3844 2670 4047 
Q 2441 4250 2034 4250 
Q 1625 4250 1398 4047 
Q 1172 3844 1172 3481 
z
" transform="scale(0.015625)"/>
       </defs>
       <use xlink:href="#DejaVuSans-38"/>
       <use xlink:href="#DejaVuSans-30" x="63.623047"/>
      </g>
     </g>
    </g>
    <g id="xtick_6">
     <g id="line2d_11">
      <path d="M 622.636364 384.48 
L 622.636364 51.84 
" clip-path="url(#p8a0a67ac4b)" style="fill: none; stroke: #b0b0b0; stroke-width: 0.8; stroke-linecap: square"/>
     </g>
     <g id="line2d_12">
      <g>
       <use xlink:href="#m4e072ef22a" x="622.636364" y="384.48" style="stroke: #000000; stroke-width: 0.8"/>
      </g>
     </g>
     <g id="text_6">
      <!-- 100 -->
      <g transform="translate(613.092614 399.078438) scale(0.1 -0.1)">
       <defs>
        <path id="DejaVuSans-31" d="M 794 531 
L 1825 531 
L 1825 4091 
L 703 3866 
L 703 4441 
L 1819 4666 
L 2450 4666 
L 2450 531 
L 3481 531 
L 3481 0 
L 794 0 
L 794 531 
z
" transform="scale(0.015625)"/>
       </defs>
       <use xlink:href="#DejaVuSans-31"/>
       <use xlink:href="#DejaVuSans-30" x="63.623047"/>
       <use xlink:href="#DejaVuSans-30" x="127.246094"/>
      </g>
     </g>
    </g>
    <g id="text_7">
     <!-- Epoch -->
     <g transform="translate(353.689062 412.756563) scale(0.1 -0.1)">
      <defs>
       <path id="DejaVuSans-45" d="M 628 4666 
L 3578 4666 
L 3578 4134 
L 1259 4134 
L 1259 2753 
L 3481 2753 
L 3481 2222 
L 1259 2222 
L 1259 531 
L 3634 531 
L 3634 0 
L 628 0 
L 628 4666 
z
" transform="scale(0.015625)"/>
       <path id="DejaVuSans-70" d="M 1159 525 
L 1159 -1331 
L 581 -1331 
L 581 3500 
L 1159 3500 
L 1159 2969 
Q 1341 3281 1617 3432 
Q 1894 3584 2278 3584 
Q 2916 3584 3314 3078 
Q 3713 2572 3713 1747 
Q 3713 922 3314 415 
Q 2916 -91 2278 -91 
Q 1894 -91 1617 61 
Q 1341 213 1159 525 
z
M 3116 1747 
Q 3116 2381 2855 2742 
Q 2594 3103 2138 3103 
Q 1681 3103 1420 2742 
Q 1159 2381 1159 1747 
Q 1159 1113 1420 752 
Q 1681 391 2138 391 
Q 2594 391 2855 752 
Q 3116 1113 3116 1747 
z
" transform="scale(0.015625)"/>
       <path id="DejaVuSans-6f" d="M 1959 3097 
Q 1497 3097 1228 2736 
Q 959 2375 959 1747 
Q 959 1119 1226 758 
Q 1494 397 1959 397 
Q 2419 397 2687 759 
Q 2956 1122 2956 1747 
Q 2956 2369 2687 2733 
Q 2419 3097 1959 3097 
z
M 1959 3584 
Q 2709 3584 3137 3096 
Q 3566 2609 3566 1747 
Q 3566 888 3137 398 
Q 2709 -91 1959 -91 
Q 1206 -91 779 398 
Q 353 888 353 1747 
Q 353 2609 779 3096 
Q 1206 3584 1959 3584 
z
" transform="scale(0.015625)"/>
       <path id="DejaVuSans-63" d="M 3122 3366 
L 3122 2828 
Q 2878 2963 2633 3030 
Q 2388 3097 2138 3097 
Q 1578 3097 1268 2742 
Q 959 2388 959 1747 
Q 959 1106 1268 751 
Q 1578 397 2138 397 
Q 2388 397 2633 464 
Q 2878 531 3122 666 
L 3122 134 
Q 2881 22 2623 -34 
Q 2366 -91 2075 -91 
Q 1284 -91 818 406 
Q 353 903 353 1747 
Q 353 2603 823 3093 
Q 1294 3584 2113 3584 
Q 2378 3584 2631 3529 
Q 2884 3475 3122 3366 
z
" transform="scale(0.015625)"/>
       <path id="DejaVuSans-68" d="M 3513 2113 
L 3513 0 
L 2938 0 
L 2938 2094 
Q 2938 2591 2744 2837 
Q 2550 3084 2163 3084 
Q 1697 3084 1428 2787 
Q 1159 2491 1159 1978 
L 1159 0 
L 581 0 
L 581 4863 
L 1159 4863 
L 1159 2956 
Q 1366 3272 1645 3428 
Q 1925 3584 2291 3584 
Q 2894 3584 3203 3211 
Q 3513 2838 3513 2113 
z
" transform="scale(0.015625)"/>
      </defs>
      <use xlink:href="#DejaVuSans-45"/>
      <use xlink:href="#DejaVuSans-70" x="63.183594"/>
      <use xlink:href="#DejaVuSans-6f" x="126.660156"/>
      <use xlink:href="#DejaVuSans-63" x="187.841797"/>
      <use xlink:href="#DejaVuSans-68" x="242.822266"/>
     </g>
    </g>
   </g>
   <g id="matplotlib.axis_2">
    <g id="ytick_1">
     <g id="line2d_13">
      <path d="M 90 371.138824 
L 648 371.138824 
" clip-path="url(#p8a0a67ac4b)" style="fill: none; stroke: #b0b0b0; stroke-width: 0.8; stroke-linecap: square"/>
     </g>
     <g id="line2d_14">
      <defs>
       <path id="m38997194bb" d="M 0 0 
L -3.5 0 
" style="stroke: #000000; stroke-width: 0.8"/>
      </defs>
      <g>
       <use xlink:href="#m38997194bb" x="90" y="371.138824" style="stroke: #000000; stroke-width: 0.8"/>
      </g>
     </g>
     <g id="text_8">
      <!-- 0.65 -->
      <g transform="translate(60.734375 374.938042) scale(0.1 -0.1)">
       <defs>
        <path id="DejaVuSans-2e" d="M 684 794 
L 1344 794 
L 1344 0 
L 684 0 
L 684 794 
z
" transform="scale(0.015625)"/>
        <path id="DejaVuSans-35" d="M 691 4666 
L 3169 4666 
L 3169 4134 
L 1269 4134 
L 1269 2991 
Q 1406 3038 1543 3061 
Q 1681 3084 1819 3084 
Q 2600 3084 3056 2656 
Q 3513 2228 3513 1497 
Q 3513 744 3044 326 
Q 2575 -91 1722 -91 
Q 1428 -91 1123 -41 
Q 819 9 494 109 
L 494 744 
Q 775 591 1075 516 
Q 1375 441 1709 441 
Q 2250 441 2565 725 
Q 2881 1009 2881 1497 
Q 2881 1984 2565 2268 
Q 2250 2553 1709 2553 
Q 1456 2553 1204 2497 
Q 953 2441 691 2322 
L 691 4666 
z
" transform="scale(0.015625)"/>
       </defs>
       <use xlink:href="#DejaVuSans-30"/>
       <use xlink:href="#DejaVuSans-2e" x="63.623047"/>
       <use xlink:href="#DejaVuSans-36" x="95.410156"/>
       <use xlink:href="#DejaVuSans-35" x="159.033203"/>
      </g>
     </g>
    </g>
    <g id="ytick_2">
     <g id="line2d_15">
      <path d="M 90 311.844706 
L 648 311.844706 
" clip-path="url(#p8a0a67ac4b)" style="fill: none; stroke: #b0b0b0; stroke-width: 0.8; stroke-linecap: square"/>
     </g>
     <g id="line2d_16">
      <g>
       <use xlink:href="#m38997194bb" x="90" y="311.844706" style="stroke: #000000; stroke-width: 0.8"/>
      </g>
     </g>
     <g id="text_9">
      <!-- 0.70 -->
      <g transform="translate(60.734375 315.643925) scale(0.1 -0.1)">
       <defs>
        <path id="DejaVuSans-37" d="M 525 4666 
L 3525 4666 
L 3525 4397 
L 1831 0 
L 1172 0 
L 2766 4134 
L 525 4134 
L 525 4666 
z
" transform="scale(0.015625)"/>
       </defs>
       <use xlink:href="#DejaVuSans-30"/>
       <use xlink:href="#DejaVuSans-2e" x="63.623047"/>
       <use xlink:href="#DejaVuSans-37" x="95.410156"/>
       <use xlink:href="#DejaVuSans-30" x="159.033203"/>
      </g>
     </g>
    </g>
    <g id="ytick_3">
     <g id="line2d_17">
      <path d="M 90 252.550588 
L 648 252.550588 
" clip-path="url(#p8a0a67ac4b)" style="fill: none; stroke: #b0b0b0; stroke-width: 0.8; stroke-linecap: square"/>
     </g>
     <g id="line2d_18">
      <g>
       <use xlink:href="#m38997194bb" x="90" y="252.550588" style="stroke: #000000; stroke-width: 0.8"/>
      </g>
     </g>
     <g id="text_10">
      <!-- 0.75 -->
      <g transform="translate(60.734375 256.349807) scale(0.1 -0.1)">
       <use xlink:href="#DejaVuSans-30"/>
       <use xlink:href="#DejaVuSans-2e" x="63.623047"/>
       <use xlink:href="#DejaVuSans-37" x="95.410156"/>
       <use xlink:href="#DejaVuSans-35" x="159.033203"/>
      </g>
     </g>
    </g>
    <g id="ytick_4">
     <g id="line2d_19">
      <path d="M 90 193.256471 
L 648 193.256471 
" clip-path="url(#p8a0a67ac4b)" style="fill: none; stroke: #b0b0b0; stroke-width: 0.8; stroke-linecap: square"/>
     </g>
     <g id="line2d_20">
      <g>
       <use xlink:href="#m38997194bb" x="90" y="193.256471" style="stroke: #000000; stroke-width: 0.8"/>
      </g>
     </g>
     <g id="text_11">
      <!-- 0.80 -->
      <g transform="translate(60.734375 197.055689) scale(0.1 -0.1)">
       <use xlink:href="#DejaVuSans-30"/>
       <use xlink:href="#DejaVuSans-2e" x="63.623047"/>
       <use xlink:href="#DejaVuSans-38" x="95.410156"/>
       <use xlink:href="#DejaVuSans-30" x="159.033203"/>
      </g>
     </g>
    </g>
    <g id="ytick_5">
     <g id="line2d_21">
      <path d="M 90 133.962353 
L 648 133.962353 
" clip-path="url(#p8a0a67ac4b)" style="fill: none; stroke: #b0b0b0; stroke-width: 0.8; stroke-linecap: square"/>
     </g>
     <g id="line2d_22">
      <g>
       <use xlink:href="#m38997194bb" x="90" y="133.962353" style="stroke: #000000; stroke-width: 0.8"/>
      </g>
     </g>
     <g id="text_12">
      <!-- 0.85 -->
      <g transform="translate(60.734375 137.761572) scale(0.1 -0.1)">
       <use xlink:href="#DejaVuSans-30"/>
       <use xlink:href="#DejaVuSans-2e" x="63.623047"/>
       <use xlink:href="#DejaVuSans-38" x="95.410156"/>
       <use xlink:href="#DejaVuSans-35" x="159.033203"/>
      </g>
     </g>
    </g>
    <g id="ytick_6">
     <g id="line2d_23">
      <path d="M 90 74.668235 
L 648 74.668235 
" clip-path="url(#p8a0a67ac4b)" style="fill: none; stroke: #b0b0b0; stroke-width: 0.8; stroke-linecap: square"/>
     </g>
     <g id="line2d_24">
      <g>
       <use xlink:href="#m38997194bb" x="90" y="74.668235" style="stroke: #000000; stroke-width: 0.8"/>
      </g>
     </g>
     <g id="text_13">
      <!-- 0.90 -->
      <g transform="translate(60.734375 78.467454) scale(0.1 -0.1)">
       <defs>
        <path id="DejaVuSans-39" d="M 703 97 
L 703 672 
Q 941 559 1184 500 
Q 1428 441 1663 441 
Q 2288 441 2617 861 
Q 2947 1281 2994 2138 
Q 2813 1869 2534 1725 
Q 2256 1581 1919 1581 
Q 1219 1581 811 2004 
Q 403 2428 403 3163 
Q 403 3881 828 4315 
Q 1253 4750 1959 4750 
Q 2769 4750 3195 4129 
Q 3622 3509 3622 2328 
Q 3622 1225 3098 567 
Q 2575 -91 1691 -91 
Q 1453 -91 1209 -44 
Q 966 3 703 97 
z
M 1959 2075 
Q 2384 2075 2632 2365 
Q 2881 2656 2881 3163 
Q 2881 3666 2632 3958 
Q 2384 4250 1959 4250 
Q 1534 4250 1286 3958 
Q 1038 3666 1038 3163 
Q 1038 2656 1286 2365 
Q 1534 2075 1959 2075 
z
" transform="scale(0.015625)"/>
       </defs>
       <use xlink:href="#DejaVuSans-30"/>
       <use xlink:href="#DejaVuSans-2e" x="63.623047"/>
       <use xlink:href="#DejaVuSans-39" x="95.410156"/>
       <use xlink:href="#DejaVuSans-30" x="159.033203"/>
      </g>
     </g>
    </g>
    <g id="text_14">
     <!-- F1 Score -->
     <g transform="translate(54.654687 239.808437) rotate(-90) scale(0.1 -0.1)">
      <defs>
       <path id="DejaVuSans-46" d="M 628 4666 
L 3309 4666 
L 3309 4134 
L 1259 4134 
L 1259 2759 
L 3109 2759 
L 3109 2228 
L 1259 2228 
L 1259 0 
L 628 0 
L 628 4666 
z
" transform="scale(0.015625)"/>
       <path id="DejaVuSans-20" transform="scale(0.015625)"/>
       <path id="DejaVuSans-53" d="M 3425 4513 
L 3425 3897 
Q 3066 4069 2747 4153 
Q 2428 4238 2131 4238 
Q 1616 4238 1336 4038 
Q 1056 3838 1056 3469 
Q 1056 3159 1242 3001 
Q 1428 2844 1947 2747 
L 2328 2669 
Q 3034 2534 3370 2195 
Q 3706 1856 3706 1288 
Q 3706 609 3251 259 
Q 2797 -91 1919 -91 
Q 1588 -91 1214 -16 
Q 841 59 441 206 
L 441 856 
Q 825 641 1194 531 
Q 1563 422 1919 422 
Q 2459 422 2753 634 
Q 3047 847 3047 1241 
Q 3047 1584 2836 1778 
Q 2625 1972 2144 2069 
L 1759 2144 
Q 1053 2284 737 2584 
Q 422 2884 422 3419 
Q 422 4038 858 4394 
Q 1294 4750 2059 4750 
Q 2388 4750 2728 4690 
Q 3069 4631 3425 4513 
z
" transform="scale(0.015625)"/>
       <path id="DejaVuSans-72" d="M 2631 2963 
Q 2534 3019 2420 3045 
Q 2306 3072 2169 3072 
Q 1681 3072 1420 2755 
Q 1159 2438 1159 1844 
L 1159 0 
L 581 0 
L 581 3500 
L 1159 3500 
L 1159 2956 
Q 1341 3275 1631 3429 
Q 1922 3584 2338 3584 
Q 2397 3584 2469 3576 
Q 2541 3569 2628 3553 
L 2631 2963 
z
" transform="scale(0.015625)"/>
       <path id="DejaVuSans-65" d="M 3597 1894 
L 3597 1613 
L 953 1613 
Q 991 1019 1311 708 
Q 1631 397 2203 397 
Q 2534 397 2845 478 
Q 3156 559 3463 722 
L 3463 178 
Q 3153 47 2828 -22 
Q 2503 -91 2169 -91 
Q 1331 -91 842 396 
Q 353 884 353 1716 
Q 353 2575 817 3079 
Q 1281 3584 2069 3584 
Q 2775 3584 3186 3129 
Q 3597 2675 3597 1894 
z
M 3022 2063 
Q 3016 2534 2758 2815 
Q 2500 3097 2075 3097 
Q 1594 3097 1305 2825 
Q 1016 2553 972 2059 
L 3022 2063 
z
" transform="scale(0.015625)"/>
      </defs>
      <use xlink:href="#DejaVuSans-46"/>
      <use xlink:href="#DejaVuSans-31" x="57.519531"/>
      <use xlink:href="#DejaVuSans-20" x="121.142578"/>
      <use xlink:href="#DejaVuSans-53" x="152.929688"/>
      <use xlink:href="#DejaVuSans-63" x="216.40625"/>
      <use xlink:href="#DejaVuSans-6f" x="271.386719"/>
      <use xlink:href="#DejaVuSans-72" x="332.568359"/>
      <use xlink:href="#DejaVuSans-65" x="371.431641"/>
     </g>
    </g>
   </g>
   <g id="line2d_25">
    <path d="M 115.363636 281.604706 
L 120.487603 281.011765 
L 125.61157 281.011765 
L 130.735537 275.200941 
L 135.859504 285.162353 
L 140.983471 266.899765 
L 146.107438 232.272 
L 151.231405 226.579765 
L 156.355372 231.323294 
L 161.479339 258.005647 
L 166.603306 208.791529 
L 171.727273 186.971294 
L 176.85124 179.856 
L 181.975207 192.544941 
L 187.099174 179.144471 
L 192.22314 230.848941 
L 197.347107 171.554824 
L 202.471074 152.699294 
L 207.595041 163.016471 
L 212.719008 159.696 
L 217.842975 144.991059 
L 222.966942 188.868706 
L 228.090909 146.176941 
L 233.214876 159.221647 
L 238.338843 142.263529 
L 243.46281 175.231059 
L 248.586777 140.247529 
L 253.710744 147.6 
L 258.834711 141.196235 
L 263.958678 139.180235 
L 269.082645 132.895059 
L 274.206612 149.141647 
L 279.330579 115.699765 
L 284.454545 119.138824 
L 289.578512 127.202824 
L 294.702479 113.565176 
L 299.826446 127.795765 
L 304.950413 152.106353 
L 310.07438 134.673882 
L 315.198347 137.045647 
L 320.322314 110.600471 
L 325.446281 125.542588 
L 330.570248 117.241412 
L 335.694215 134.673882 
L 340.818182 124.949647 
L 345.942149 116.529882 
L 351.066116 123.170824 
L 356.190083 218.871529 
L 361.31405 148.548706 
L 366.438017 136.452706 
L 371.561983 142.382118 
L 376.68595 149.734588 
L 381.809917 166.099765 
L 386.933884 117.715765 
L 392.057851 117.36 
L 397.181818 129.100235 
L 402.305785 120.680471 
L 407.429752 127.321412 
L 412.553719 123.052235 
L 417.677686 103.366588 
L 422.801653 117.241412 
L 427.92562 114.513882 
L 433.049587 105.026824 
L 438.173554 109.058824 
L 443.297521 128.507294 
L 448.421488 101.587765 
L 453.545455 108.228706 
L 458.669421 112.497882 
L 463.793388 137.994353 
L 468.917355 106.805647 
L 474.041322 107.991529 
L 479.165289 137.757176 
L 484.289256 125.542588 
L 489.413223 127.914353 
L 494.53719 134.436706 
L 499.661157 89.254588 
L 504.785124 121.392 
L 509.909091 104.789647 
L 515.033058 113.328 
L 520.157025 208.198588 
L 525.280992 119.850353 
L 530.404959 126.016941 
L 535.528926 86.645647 
L 540.652893 130.048941 
L 545.77686 79.174588 
L 550.900826 81.546353 
L 556.024793 100.520471 
L 561.14876 69.450353 
L 566.272727 128.507294 
L 571.396694 115.225412 
L 576.520661 94.591059 
L 581.644628 66.96 
L 586.768595 108.703059 
L 591.892562 90.440471 
L 597.016529 101.113412 
L 602.140496 99.690353 
L 607.264463 120.561882 
L 612.38843 70.754824 
L 617.512397 123.052235 
L 622.636364 86.527059 
" clip-path="url(#p8a0a67ac4b)" style="fill: none; stroke: #1f77b4; stroke-width: 1.5; stroke-linecap: square"/>
    <defs>
     <path id="m7457a91e53" d="M 0 3 
C 0.795609 3 1.55874 2.683901 2.12132 2.12132 
C 2.683901 1.55874 3 0.795609 3 0 
C 3 -0.795609 2.683901 -1.55874 2.12132 -2.12132 
C 1.55874 -2.683901 0.795609 -3 0 -3 
C -0.795609 -3 -1.55874 -2.683901 -2.12132 -2.12132 
C -2.683901 -1.55874 -3 -0.795609 -3 0 
C -3 0.795609 -2.683901 1.55874 -2.12132 2.12132 
C -1.55874 2.683901 -0.795609 3 0 3 
z
" style="stroke: #1f77b4"/>
    </defs>
    <g clip-path="url(#p8a0a67ac4b)">
     <use xlink:href="#m7457a91e53" x="115.363636" y="281.604706" style="fill: #1f77b4; stroke: #1f77b4"/>
     <use xlink:href="#m7457a91e53" x="120.487603" y="281.011765" style="fill: #1f77b4; stroke: #1f77b4"/>
     <use xlink:href="#m7457a91e53" x="125.61157" y="281.011765" style="fill: #1f77b4; stroke: #1f77b4"/>
     <use xlink:href="#m7457a91e53" x="130.735537" y="275.200941" style="fill: #1f77b4; stroke: #1f77b4"/>
     <use xlink:href="#m7457a91e53" x="135.859504" y="285.162353" style="fill: #1f77b4; stroke: #1f77b4"/>
     <use xlink:href="#m7457a91e53" x="140.983471" y="266.899765" style="fill: #1f77b4; stroke: #1f77b4"/>
     <use xlink:href="#m7457a91e53" x="146.107438" y="232.272" style="fill: #1f77b4; stroke: #1f77b4"/>
     <use xlink:href="#m7457a91e53" x="151.231405" y="226.579765" style="fill: #1f77b4; stroke: #1f77b4"/>
     <use xlink:href="#m7457a91e53" x="156.355372" y="231.323294" style="fill: #1f77b4; stroke: #1f77b4"/>
     <use xlink:href="#m7457a91e53" x="161.479339" y="258.005647" style="fill: #1f77b4; stroke: #1f77b4"/>
     <use xlink:href="#m7457a91e53" x="166.603306" y="208.791529" style="fill: #1f77b4; stroke: #1f77b4"/>
     <use xlink:href="#m7457a91e53" x="171.727273" y="186.971294" style="fill: #1f77b4; stroke: #1f77b4"/>
     <use xlink:href="#m7457a91e53" x="176.85124" y="179.856" style="fill: #1f77b4; stroke: #1f77b4"/>
     <use xlink:href="#m7457a91e53" x="181.975207" y="192.544941" style="fill: #1f77b4; stroke: #1f77b4"/>
     <use xlink:href="#m7457a91e53" x="187.099174" y="179.144471" style="fill: #1f77b4; stroke: #1f77b4"/>
     <use xlink:href="#m7457a91e53" x="192.22314" y="230.848941" style="fill: #1f77b4; stroke: #1f77b4"/>
     <use xlink:href="#m7457a91e53" x="197.347107" y="171.554824" style="fill: #1f77b4; stroke: #1f77b4"/>
     <use xlink:href="#m7457a91e53" x="202.471074" y="152.699294" style="fill: #1f77b4; stroke: #1f77b4"/>
     <use xlink:href="#m7457a91e53" x="207.595041" y="163.016471" style="fill: #1f77b4; stroke: #1f77b4"/>
     <use xlink:href="#m7457a91e53" x="212.719008" y="159.696" style="fill: #1f77b4; stroke: #1f77b4"/>
     <use xlink:href="#m7457a91e53" x="217.842975" y="144.991059" style="fill: #1f77b4; stroke: #1f77b4"/>
     <use xlink:href="#m7457a91e53" x="222.966942" y="188.868706" style="fill: #1f77b4; stroke: #1f77b4"/>
     <use xlink:href="#m7457a91e53" x="228.090909" y="146.176941" style="fill: #1f77b4; stroke: #1f77b4"/>
     <use xlink:href="#m7457a91e53" x="233.214876" y="159.221647" style="fill: #1f77b4; stroke: #1f77b4"/>
     <use xlink:href="#m7457a91e53" x="238.338843" y="142.263529" style="fill: #1f77b4; stroke: #1f77b4"/>
     <use xlink:href="#m7457a91e53" x="243.46281" y="175.231059" style="fill: #1f77b4; stroke: #1f77b4"/>
     <use xlink:href="#m7457a91e53" x="248.586777" y="140.247529" style="fill: #1f77b4; stroke: #1f77b4"/>
     <use xlink:href="#m7457a91e53" x="253.710744" y="147.6" style="fill: #1f77b4; stroke: #1f77b4"/>
     <use xlink:href="#m7457a91e53" x="258.834711" y="141.196235" style="fill: #1f77b4; stroke: #1f77b4"/>
     <use xlink:href="#m7457a91e53" x="263.958678" y="139.180235" style="fill: #1f77b4; stroke: #1f77b4"/>
     <use xlink:href="#m7457a91e53" x="269.082645" y="132.895059" style="fill: #1f77b4; stroke: #1f77b4"/>
     <use xlink:href="#m7457a91e53" x="274.206612" y="149.141647" style="fill: #1f77b4; stroke: #1f77b4"/>
     <use xlink:href="#m7457a91e53" x="279.330579" y="115.699765" style="fill: #1f77b4; stroke: #1f77b4"/>
     <use xlink:href="#m7457a91e53" x="284.454545" y="119.138824" style="fill: #1f77b4; stroke: #1f77b4"/>
     <use xlink:href="#m7457a91e53" x="289.578512" y="127.202824" style="fill: #1f77b4; stroke: #1f77b4"/>
     <use xlink:href="#m7457a91e53" x="294.702479" y="113.565176" style="fill: #1f77b4; stroke: #1f77b4"/>
     <use xlink:href="#m7457a91e53" x="299.826446" y="127.795765" style="fill: #1f77b4; stroke: #1f77b4"/>
     <use xlink:href="#m7457a91e53" x="304.950413" y="152.106353" style="fill: #1f77b4; stroke: #1f77b4"/>
     <use xlink:href="#m7457a91e53" x="310.07438" y="134.673882" style="fill: #1f77b4; stroke: #1f77b4"/>
     <use xlink:href="#m7457a91e53" x="315.198347" y="137.045647" style="fill: #1f77b4; stroke: #1f77b4"/>
     <use xlink:href="#m7457a91e53" x="320.322314" y="110.600471" style="fill: #1f77b4; stroke: #1f77b4"/>
     <use xlink:href="#m7457a91e53" x="325.446281" y="125.542588" style="fill: #1f77b4; stroke: #1f77b4"/>
     <use xlink:href="#m7457a91e53" x="330.570248" y="117.241412" style="fill: #1f77b4; stroke: #1f77b4"/>
     <use xlink:href="#m7457a91e53" x="335.694215" y="134.673882" style="fill: #1f77b4; stroke: #1f77b4"/>
     <use xlink:href="#m7457a91e53" x="340.818182" y="124.949647" style="fill: #1f77b4; stroke: #1f77b4"/>
     <use xlink:href="#m7457a91e53" x="345.942149" y="116.529882" style="fill: #1f77b4; stroke: #1f77b4"/>
     <use xlink:href="#m7457a91e53" x="351.066116" y="123.170824" style="fill: #1f77b4; stroke: #1f77b4"/>
     <use xlink:href="#m7457a91e53" x="356.190083" y="218.871529" style="fill: #1f77b4; stroke: #1f77b4"/>
     <use xlink:href="#m7457a91e53" x="361.31405" y="148.548706" style="fill: #1f77b4; stroke: #1f77b4"/>
     <use xlink:href="#m7457a91e53" x="366.438017" y="136.452706" style="fill: #1f77b4; stroke: #1f77b4"/>
     <use xlink:href="#m7457a91e53" x="371.561983" y="142.382118" style="fill: #1f77b4; stroke: #1f77b4"/>
     <use xlink:href="#m7457a91e53" x="376.68595" y="149.734588" style="fill: #1f77b4; stroke: #1f77b4"/>
     <use xlink:href="#m7457a91e53" x="381.809917" y="166.099765" style="fill: #1f77b4; stroke: #1f77b4"/>
     <use xlink:href="#m7457a91e53" x="386.933884" y="117.715765" style="fill: #1f77b4; stroke: #1f77b4"/>
     <use xlink:href="#m7457a91e53" x="392.057851" y="117.36" style="fill: #1f77b4; stroke: #1f77b4"/>
     <use xlink:href="#m7457a91e53" x="397.181818" y="129.100235" style="fill: #1f77b4; stroke: #1f77b4"/>
     <use xlink:href="#m7457a91e53" x="402.305785" y="120.680471" style="fill: #1f77b4; stroke: #1f77b4"/>
     <use xlink:href="#m7457a91e53" x="407.429752" y="127.321412" style="fill: #1f77b4; stroke: #1f77b4"/>
     <use xlink:href="#m7457a91e53" x="412.553719" y="123.052235" style="fill: #1f77b4; stroke: #1f77b4"/>
     <use xlink:href="#m7457a91e53" x="417.677686" y="103.366588" style="fill: #1f77b4; stroke: #1f77b4"/>
     <use xlink:href="#m7457a91e53" x="422.801653" y="117.241412" style="fill: #1f77b4; stroke: #1f77b4"/>
     <use xlink:href="#m7457a91e53" x="427.92562" y="114.513882" style="fill: #1f77b4; stroke: #1f77b4"/>
     <use xlink:href="#m7457a91e53" x="433.049587" y="105.026824" style="fill: #1f77b4; stroke: #1f77b4"/>
     <use xlink:href="#m7457a91e53" x="438.173554" y="109.058824" style="fill: #1f77b4; stroke: #1f77b4"/>
     <use xlink:href="#m7457a91e53" x="443.297521" y="128.507294" style="fill: #1f77b4; stroke: #1f77b4"/>
     <use xlink:href="#m7457a91e53" x="448.421488" y="101.587765" style="fill: #1f77b4; stroke: #1f77b4"/>
     <use xlink:href="#m7457a91e53" x="453.545455" y="108.228706" style="fill: #1f77b4; stroke: #1f77b4"/>
     <use xlink:href="#m7457a91e53" x="458.669421" y="112.497882" style="fill: #1f77b4; stroke: #1f77b4"/>
     <use xlink:href="#m7457a91e53" x="463.793388" y="137.994353" style="fill: #1f77b4; stroke: #1f77b4"/>
     <use xlink:href="#m7457a91e53" x="468.917355" y="106.805647" style="fill: #1f77b4; stroke: #1f77b4"/>
     <use xlink:href="#m7457a91e53" x="474.041322" y="107.991529" style="fill: #1f77b4; stroke: #1f77b4"/>
     <use xlink:href="#m7457a91e53" x="479.165289" y="137.757176" style="fill: #1f77b4; stroke: #1f77b4"/>
     <use xlink:href="#m7457a91e53" x="484.289256" y="125.542588" style="fill: #1f77b4; stroke: #1f77b4"/>
     <use xlink:href="#m7457a91e53" x="489.413223" y="127.914353" style="fill: #1f77b4; stroke: #1f77b4"/>
     <use xlink:href="#m7457a91e53" x="494.53719" y="134.436706" style="fill: #1f77b4; stroke: #1f77b4"/>
     <use xlink:href="#m7457a91e53" x="499.661157" y="89.254588" style="fill: #1f77b4; stroke: #1f77b4"/>
     <use xlink:href="#m7457a91e53" x="504.785124" y="121.392" style="fill: #1f77b4; stroke: #1f77b4"/>
     <use xlink:href="#m7457a91e53" x="509.909091" y="104.789647" style="fill: #1f77b4; stroke: #1f77b4"/>
     <use xlink:href="#m7457a91e53" x="515.033058" y="113.328" style="fill: #1f77b4; stroke: #1f77b4"/>
     <use xlink:href="#m7457a91e53" x="520.157025" y="208.198588" style="fill: #1f77b4; stroke: #1f77b4"/>
     <use xlink:href="#m7457a91e53" x="525.280992" y="119.850353" style="fill: #1f77b4; stroke: #1f77b4"/>
     <use xlink:href="#m7457a91e53" x="530.404959" y="126.016941" style="fill: #1f77b4; stroke: #1f77b4"/>
     <use xlink:href="#m7457a91e53" x="535.528926" y="86.645647" style="fill: #1f77b4; stroke: #1f77b4"/>
     <use xlink:href="#m7457a91e53" x="540.652893" y="130.048941" style="fill: #1f77b4; stroke: #1f77b4"/>
     <use xlink:href="#m7457a91e53" x="545.77686" y="79.174588" style="fill: #1f77b4; stroke: #1f77b4"/>
     <use xlink:href="#m7457a91e53" x="550.900826" y="81.546353" style="fill: #1f77b4; stroke: #1f77b4"/>
     <use xlink:href="#m7457a91e53" x="556.024793" y="100.520471" style="fill: #1f77b4; stroke: #1f77b4"/>
     <use xlink:href="#m7457a91e53" x="561.14876" y="69.450353" style="fill: #1f77b4; stroke: #1f77b4"/>
     <use xlink:href="#m7457a91e53" x="566.272727" y="128.507294" style="fill: #1f77b4; stroke: #1f77b4"/>
     <use xlink:href="#m7457a91e53" x="571.396694" y="115.225412" style="fill: #1f77b4; stroke: #1f77b4"/>
     <use xlink:href="#m7457a91e53" x="576.520661" y="94.591059" style="fill: #1f77b4; stroke: #1f77b4"/>
     <use xlink:href="#m7457a91e53" x="581.644628" y="66.96" style="fill: #1f77b4; stroke: #1f77b4"/>
     <use xlink:href="#m7457a91e53" x="586.768595" y="108.703059" style="fill: #1f77b4; stroke: #1f77b4"/>
     <use xlink:href="#m7457a91e53" x="591.892562" y="90.440471" style="fill: #1f77b4; stroke: #1f77b4"/>
     <use xlink:href="#m7457a91e53" x="597.016529" y="101.113412" style="fill: #1f77b4; stroke: #1f77b4"/>
     <use xlink:href="#m7457a91e53" x="602.140496" y="99.690353" style="fill: #1f77b4; stroke: #1f77b4"/>
     <use xlink:href="#m7457a91e53" x="607.264463" y="120.561882" style="fill: #1f77b4; stroke: #1f77b4"/>
     <use xlink:href="#m7457a91e53" x="612.38843" y="70.754824" style="fill: #1f77b4; stroke: #1f77b4"/>
     <use xlink:href="#m7457a91e53" x="617.512397" y="123.052235" style="fill: #1f77b4; stroke: #1f77b4"/>
     <use xlink:href="#m7457a91e53" x="622.636364" y="86.527059" style="fill: #1f77b4; stroke: #1f77b4"/>
    </g>
   </g>
   <g id="line2d_26">
    <path d="M 115.363636 283.620706 
L 120.487603 246.976941 
L 125.61157 243.419294 
L 130.735537 239.031529 
L 135.859504 253.973647 
L 140.983471 232.627765 
L 146.107438 274.845176 
L 151.231405 249.111529 
L 156.355372 246.976941 
L 161.479339 239.505882 
L 166.603306 278.047059 
L 171.727273 206.064 
L 176.85124 343.626353 
L 181.975207 211.281882 
L 187.099174 260.496 
L 192.22314 341.966118 
L 197.347107 235.236706 
L 202.471074 202.506353 
L 207.595041 249.585882 
L 212.719008 257.412706 
L 217.842975 278.047059 
L 222.966942 274.608 
L 228.090909 225.038118 
L 233.214876 297.139765 
L 238.338843 263.579294 
L 243.46281 215.788235 
L 248.586777 259.903059 
L 253.710744 253.973647 
L 258.834711 369.36 
L 263.958678 282.197647 
L 269.082645 261.919059 
L 274.206612 284.688 
L 279.330579 301.764706 
L 284.454545 278.402824 
L 289.578512 272.236235 
L 294.702479 268.204235 
L 299.826446 270.576 
L 304.950413 311.370353 
L 310.07438 267.729882 
L 315.198347 277.928471 
L 320.322314 266.662588 
L 325.446281 253.499294 
L 330.570248 202.150588 
L 335.694215 272.473412 
L 340.818182 206.775529 
L 345.942149 259.547294 
L 351.066116 274.845176 
L 356.190083 322.161882 
L 361.31405 269.864471 
L 366.438017 273.659294 
L 371.561983 265.832471 
L 376.68595 269.983059 
L 381.809917 259.784471 
L 386.933884 269.508706 
L 392.057851 366.276706 
L 397.181818 283.502118 
L 402.305785 193.256471 
L 407.429752 263.579294 
L 412.553719 292.989176 
L 417.677686 225.275294 
L 422.801653 328.209882 
L 427.92562 269.983059 
L 433.049587 265.358118 
L 438.173554 272.710588 
L 443.297521 223.140706 
L 448.421488 188.987294 
L 453.545455 222.429176 
L 458.669421 222.192 
L 463.793388 259.310118 
L 468.917355 285.043765 
L 474.041322 272.829176 
L 479.165289 217.922824 
L 484.289256 264.646588 
L 489.413223 260.258824 
L 494.53719 220.057412 
L 499.661157 225.512471 
L 504.785124 281.130353 
L 509.909091 217.211294 
L 515.033058 255.159529 
L 520.157025 215.313882 
L 525.280992 258.242824 
L 530.404959 266.306824 
L 535.528926 195.509647 
L 540.652893 222.073412 
L 545.77686 296.546824 
L 550.900826 285.162353 
L 556.024793 260.970353 
L 561.14876 222.903529 
L 566.272727 264.172235 
L 571.396694 283.857882 
L 576.520661 217.211294 
L 581.644628 195.272471 
L 586.768595 206.301176 
L 591.892562 193.256471 
L 597.016529 295.835294 
L 602.140496 219.108706 
L 607.264463 324.889412 
L 612.38843 198.711529 
L 617.512397 221.599059 
L 622.636364 219.345882 
" clip-path="url(#p8a0a67ac4b)" style="fill: none; stroke: #ff7f0e; stroke-width: 1.5; stroke-linecap: square"/>
    <defs>
     <path id="mdc2557b516" d="M 0 3 
C 0.795609 3 1.55874 2.683901 2.12132 2.12132 
C 2.683901 1.55874 3 0.795609 3 0 
C 3 -0.795609 2.683901 -1.55874 2.12132 -2.12132 
C 1.55874 -2.683901 0.795609 -3 0 -3 
C -0.795609 -3 -1.55874 -2.683901 -2.12132 -2.12132 
C -2.683901 -1.55874 -3 -0.795609 -3 0 
C -3 0.795609 -2.683901 1.55874 -2.12132 2.12132 
C -1.55874 2.683901 -0.795609 3 0 3 
z
" style="stroke: #ff7f0e"/>
    </defs>
    <g clip-path="url(#p8a0a67ac4b)">
     <use xlink:href="#mdc2557b516" x="115.363636" y="283.620706" style="fill: #ff7f0e; stroke: #ff7f0e"/>
     <use xlink:href="#mdc2557b516" x="120.487603" y="246.976941" style="fill: #ff7f0e; stroke: #ff7f0e"/>
     <use xlink:href="#mdc2557b516" x="125.61157" y="243.419294" style="fill: #ff7f0e; stroke: #ff7f0e"/>
     <use xlink:href="#mdc2557b516" x="130.735537" y="239.031529" style="fill: #ff7f0e; stroke: #ff7f0e"/>
     <use xlink:href="#mdc2557b516" x="135.859504" y="253.973647" style="fill: #ff7f0e; stroke: #ff7f0e"/>
     <use xlink:href="#mdc2557b516" x="140.983471" y="232.627765" style="fill: #ff7f0e; stroke: #ff7f0e"/>
     <use xlink:href="#mdc2557b516" x="146.107438" y="274.845176" style="fill: #ff7f0e; stroke: #ff7f0e"/>
     <use xlink:href="#mdc2557b516" x="151.231405" y="249.111529" style="fill: #ff7f0e; stroke: #ff7f0e"/>
     <use xlink:href="#mdc2557b516" x="156.355372" y="246.976941" style="fill: #ff7f0e; stroke: #ff7f0e"/>
     <use xlink:href="#mdc2557b516" x="161.479339" y="239.505882" style="fill: #ff7f0e; stroke: #ff7f0e"/>
     <use xlink:href="#mdc2557b516" x="166.603306" y="278.047059" style="fill: #ff7f0e; stroke: #ff7f0e"/>
     <use xlink:href="#mdc2557b516" x="171.727273" y="206.064" style="fill: #ff7f0e; stroke: #ff7f0e"/>
     <use xlink:href="#mdc2557b516" x="176.85124" y="343.626353" style="fill: #ff7f0e; stroke: #ff7f0e"/>
     <use xlink:href="#mdc2557b516" x="181.975207" y="211.281882" style="fill: #ff7f0e; stroke: #ff7f0e"/>
     <use xlink:href="#mdc2557b516" x="187.099174" y="260.496" style="fill: #ff7f0e; stroke: #ff7f0e"/>
     <use xlink:href="#mdc2557b516" x="192.22314" y="341.966118" style="fill: #ff7f0e; stroke: #ff7f0e"/>
     <use xlink:href="#mdc2557b516" x="197.347107" y="235.236706" style="fill: #ff7f0e; stroke: #ff7f0e"/>
     <use xlink:href="#mdc2557b516" x="202.471074" y="202.506353" style="fill: #ff7f0e; stroke: #ff7f0e"/>
     <use xlink:href="#mdc2557b516" x="207.595041" y="249.585882" style="fill: #ff7f0e; stroke: #ff7f0e"/>
     <use xlink:href="#mdc2557b516" x="212.719008" y="257.412706" style="fill: #ff7f0e; stroke: #ff7f0e"/>
     <use xlink:href="#mdc2557b516" x="217.842975" y="278.047059" style="fill: #ff7f0e; stroke: #ff7f0e"/>
     <use xlink:href="#mdc2557b516" x="222.966942" y="274.608" style="fill: #ff7f0e; stroke: #ff7f0e"/>
     <use xlink:href="#mdc2557b516" x="228.090909" y="225.038118" style="fill: #ff7f0e; stroke: #ff7f0e"/>
     <use xlink:href="#mdc2557b516" x="233.214876" y="297.139765" style="fill: #ff7f0e; stroke: #ff7f0e"/>
     <use xlink:href="#mdc2557b516" x="238.338843" y="263.579294" style="fill: #ff7f0e; stroke: #ff7f0e"/>
     <use xlink:href="#mdc2557b516" x="243.46281" y="215.788235" style="fill: #ff7f0e; stroke: #ff7f0e"/>
     <use xlink:href="#mdc2557b516" x="248.586777" y="259.903059" style="fill: #ff7f0e; stroke: #ff7f0e"/>
     <use xlink:href="#mdc2557b516" x="253.710744" y="253.973647" style="fill: #ff7f0e; stroke: #ff7f0e"/>
     <use xlink:href="#mdc2557b516" x="258.834711" y="369.36" style="fill: #ff7f0e; stroke: #ff7f0e"/>
     <use xlink:href="#mdc2557b516" x="263.958678" y="282.197647" style="fill: #ff7f0e; stroke: #ff7f0e"/>
     <use xlink:href="#mdc2557b516" x="269.082645" y="261.919059" style="fill: #ff7f0e; stroke: #ff7f0e"/>
     <use xlink:href="#mdc2557b516" x="274.206612" y="284.688" style="fill: #ff7f0e; stroke: #ff7f0e"/>
     <use xlink:href="#mdc2557b516" x="279.330579" y="301.764706" style="fill: #ff7f0e; stroke: #ff7f0e"/>
     <use xlink:href="#mdc2557b516" x="284.454545" y="278.402824" style="fill: #ff7f0e; stroke: #ff7f0e"/>
     <use xlink:href="#mdc2557b516" x="289.578512" y="272.236235" style="fill: #ff7f0e; stroke: #ff7f0e"/>
     <use xlink:href="#mdc2557b516" x="294.702479" y="268.204235" style="fill: #ff7f0e; stroke: #ff7f0e"/>
     <use xlink:href="#mdc2557b516" x="299.826446" y="270.576" style="fill: #ff7f0e; stroke: #ff7f0e"/>
     <use xlink:href="#mdc2557b516" x="304.950413" y="311.370353" style="fill: #ff7f0e; stroke: #ff7f0e"/>
     <use xlink:href="#mdc2557b516" x="310.07438" y="267.729882" style="fill: #ff7f0e; stroke: #ff7f0e"/>
     <use xlink:href="#mdc2557b516" x="315.198347" y="277.928471" style="fill: #ff7f0e; stroke: #ff7f0e"/>
     <use xlink:href="#mdc2557b516" x="320.322314" y="266.662588" style="fill: #ff7f0e; stroke: #ff7f0e"/>
     <use xlink:href="#mdc2557b516" x="325.446281" y="253.499294" style="fill: #ff7f0e; stroke: #ff7f0e"/>
     <use xlink:href="#mdc2557b516" x="330.570248" y="202.150588" style="fill: #ff7f0e; stroke: #ff7f0e"/>
     <use xlink:href="#mdc2557b516" x="335.694215" y="272.473412" style="fill: #ff7f0e; stroke: #ff7f0e"/>
     <use xlink:href="#mdc2557b516" x="340.818182" y="206.775529" style="fill: #ff7f0e; stroke: #ff7f0e"/>
     <use xlink:href="#mdc2557b516" x="345.942149" y="259.547294" style="fill: #ff7f0e; stroke: #ff7f0e"/>
     <use xlink:href="#mdc2557b516" x="351.066116" y="274.845176" style="fill: #ff7f0e; stroke: #ff7f0e"/>
     <use xlink:href="#mdc2557b516" x="356.190083" y="322.161882" style="fill: #ff7f0e; stroke: #ff7f0e"/>
     <use xlink:href="#mdc2557b516" x="361.31405" y="269.864471" style="fill: #ff7f0e; stroke: #ff7f0e"/>
     <use xlink:href="#mdc2557b516" x="366.438017" y="273.659294" style="fill: #ff7f0e; stroke: #ff7f0e"/>
     <use xlink:href="#mdc2557b516" x="371.561983" y="265.832471" style="fill: #ff7f0e; stroke: #ff7f0e"/>
     <use xlink:href="#mdc2557b516" x="376.68595" y="269.983059" style="fill: #ff7f0e; stroke: #ff7f0e"/>
     <use xlink:href="#mdc2557b516" x="381.809917" y="259.784471" style="fill: #ff7f0e; stroke: #ff7f0e"/>
     <use xlink:href="#mdc2557b516" x="386.933884" y="269.508706" style="fill: #ff7f0e; stroke: #ff7f0e"/>
     <use xlink:href="#mdc2557b516" x="392.057851" y="366.276706" style="fill: #ff7f0e; stroke: #ff7f0e"/>
     <use xlink:href="#mdc2557b516" x="397.181818" y="283.502118" style="fill: #ff7f0e; stroke: #ff7f0e"/>
     <use xlink:href="#mdc2557b516" x="402.305785" y="193.256471" style="fill: #ff7f0e; stroke: #ff7f0e"/>
     <use xlink:href="#mdc2557b516" x="407.429752" y="263.579294" style="fill: #ff7f0e; stroke: #ff7f0e"/>
     <use xlink:href="#mdc2557b516" x="412.553719" y="292.989176" style="fill: #ff7f0e; stroke: #ff7f0e"/>
     <use xlink:href="#mdc2557b516" x="417.677686" y="225.275294" style="fill: #ff7f0e; stroke: #ff7f0e"/>
     <use xlink:href="#mdc2557b516" x="422.801653" y="328.209882" style="fill: #ff7f0e; stroke: #ff7f0e"/>
     <use xlink:href="#mdc2557b516" x="427.92562" y="269.983059" style="fill: #ff7f0e; stroke: #ff7f0e"/>
     <use xlink:href="#mdc2557b516" x="433.049587" y="265.358118" style="fill: #ff7f0e; stroke: #ff7f0e"/>
     <use xlink:href="#mdc2557b516" x="438.173554" y="272.710588" style="fill: #ff7f0e; stroke: #ff7f0e"/>
     <use xlink:href="#mdc2557b516" x="443.297521" y="223.140706" style="fill: #ff7f0e; stroke: #ff7f0e"/>
     <use xlink:href="#mdc2557b516" x="448.421488" y="188.987294" style="fill: #ff7f0e; stroke: #ff7f0e"/>
     <use xlink:href="#mdc2557b516" x="453.545455" y="222.429176" style="fill: #ff7f0e; stroke: #ff7f0e"/>
     <use xlink:href="#mdc2557b516" x="458.669421" y="222.192" style="fill: #ff7f0e; stroke: #ff7f0e"/>
     <use xlink:href="#mdc2557b516" x="463.793388" y="259.310118" style="fill: #ff7f0e; stroke: #ff7f0e"/>
     <use xlink:href="#mdc2557b516" x="468.917355" y="285.043765" style="fill: #ff7f0e; stroke: #ff7f0e"/>
     <use xlink:href="#mdc2557b516" x="474.041322" y="272.829176" style="fill: #ff7f0e; stroke: #ff7f0e"/>
     <use xlink:href="#mdc2557b516" x="479.165289" y="217.922824" style="fill: #ff7f0e; stroke: #ff7f0e"/>
     <use xlink:href="#mdc2557b516" x="484.289256" y="264.646588" style="fill: #ff7f0e; stroke: #ff7f0e"/>
     <use xlink:href="#mdc2557b516" x="489.413223" y="260.258824" style="fill: #ff7f0e; stroke: #ff7f0e"/>
     <use xlink:href="#mdc2557b516" x="494.53719" y="220.057412" style="fill: #ff7f0e; stroke: #ff7f0e"/>
     <use xlink:href="#mdc2557b516" x="499.661157" y="225.512471" style="fill: #ff7f0e; stroke: #ff7f0e"/>
     <use xlink:href="#mdc2557b516" x="504.785124" y="281.130353" style="fill: #ff7f0e; stroke: #ff7f0e"/>
     <use xlink:href="#mdc2557b516" x="509.909091" y="217.211294" style="fill: #ff7f0e; stroke: #ff7f0e"/>
     <use xlink:href="#mdc2557b516" x="515.033058" y="255.159529" style="fill: #ff7f0e; stroke: #ff7f0e"/>
     <use xlink:href="#mdc2557b516" x="520.157025" y="215.313882" style="fill: #ff7f0e; stroke: #ff7f0e"/>
     <use xlink:href="#mdc2557b516" x="525.280992" y="258.242824" style="fill: #ff7f0e; stroke: #ff7f0e"/>
     <use xlink:href="#mdc2557b516" x="530.404959" y="266.306824" style="fill: #ff7f0e; stroke: #ff7f0e"/>
     <use xlink:href="#mdc2557b516" x="535.528926" y="195.509647" style="fill: #ff7f0e; stroke: #ff7f0e"/>
     <use xlink:href="#mdc2557b516" x="540.652893" y="222.073412" style="fill: #ff7f0e; stroke: #ff7f0e"/>
     <use xlink:href="#mdc2557b516" x="545.77686" y="296.546824" style="fill: #ff7f0e; stroke: #ff7f0e"/>
     <use xlink:href="#mdc2557b516" x="550.900826" y="285.162353" style="fill: #ff7f0e; stroke: #ff7f0e"/>
     <use xlink:href="#mdc2557b516" x="556.024793" y="260.970353" style="fill: #ff7f0e; stroke: #ff7f0e"/>
     <use xlink:href="#mdc2557b516" x="561.14876" y="222.903529" style="fill: #ff7f0e; stroke: #ff7f0e"/>
     <use xlink:href="#mdc2557b516" x="566.272727" y="264.172235" style="fill: #ff7f0e; stroke: #ff7f0e"/>
     <use xlink:href="#mdc2557b516" x="571.396694" y="283.857882" style="fill: #ff7f0e; stroke: #ff7f0e"/>
     <use xlink:href="#mdc2557b516" x="576.520661" y="217.211294" style="fill: #ff7f0e; stroke: #ff7f0e"/>
     <use xlink:href="#mdc2557b516" x="581.644628" y="195.272471" style="fill: #ff7f0e; stroke: #ff7f0e"/>
     <use xlink:href="#mdc2557b516" x="586.768595" y="206.301176" style="fill: #ff7f0e; stroke: #ff7f0e"/>
     <use xlink:href="#mdc2557b516" x="591.892562" y="193.256471" style="fill: #ff7f0e; stroke: #ff7f0e"/>
     <use xlink:href="#mdc2557b516" x="597.016529" y="295.835294" style="fill: #ff7f0e; stroke: #ff7f0e"/>
     <use xlink:href="#mdc2557b516" x="602.140496" y="219.108706" style="fill: #ff7f0e; stroke: #ff7f0e"/>
     <use xlink:href="#mdc2557b516" x="607.264463" y="324.889412" style="fill: #ff7f0e; stroke: #ff7f0e"/>
     <use xlink:href="#mdc2557b516" x="612.38843" y="198.711529" style="fill: #ff7f0e; stroke: #ff7f0e"/>
     <use xlink:href="#mdc2557b516" x="617.512397" y="221.599059" style="fill: #ff7f0e; stroke: #ff7f0e"/>
     <use xlink:href="#mdc2557b516" x="622.636364" y="219.345882" style="fill: #ff7f0e; stroke: #ff7f0e"/>
    </g>
   </g>
   <g id="patch_3">
    <path d="M 90 384.48 
L 90 51.84 
" style="fill: none; stroke: #000000; stroke-width: 0.8; stroke-linejoin: miter; stroke-linecap: square"/>
   </g>
   <g id="patch_4">
    <path d="M 648 384.48 
L 648 51.84 
" style="fill: none; stroke: #000000; stroke-width: 0.8; stroke-linejoin: miter; stroke-linecap: square"/>
   </g>
   <g id="patch_5">
    <path d="M 90 384.48 
L 648 384.48 
" style="fill: none; stroke: #000000; stroke-width: 0.8; stroke-linejoin: miter; stroke-linecap: square"/>
   </g>
   <g id="patch_6">
    <path d="M 90 51.84 
L 648 51.84 
" style="fill: none; stroke: #000000; stroke-width: 0.8; stroke-linejoin: miter; stroke-linecap: square"/>
   </g>
   <g id="text_15">
    <!-- F1 Score Comparison: GraphConv with and without dropout -->
    <g transform="translate(189.998437 45.84) scale(0.12 -0.12)">
     <defs>
      <path id="DejaVuSans-43" d="M 4122 4306 
L 4122 3641 
Q 3803 3938 3442 4084 
Q 3081 4231 2675 4231 
Q 1875 4231 1450 3742 
Q 1025 3253 1025 2328 
Q 1025 1406 1450 917 
Q 1875 428 2675 428 
Q 3081 428 3442 575 
Q 3803 722 4122 1019 
L 4122 359 
Q 3791 134 3420 21 
Q 3050 -91 2638 -91 
Q 1578 -91 968 557 
Q 359 1206 359 2328 
Q 359 3453 968 4101 
Q 1578 4750 2638 4750 
Q 3056 4750 3426 4639 
Q 3797 4528 4122 4306 
z
" transform="scale(0.015625)"/>
      <path id="DejaVuSans-6d" d="M 3328 2828 
Q 3544 3216 3844 3400 
Q 4144 3584 4550 3584 
Q 5097 3584 5394 3201 
Q 5691 2819 5691 2113 
L 5691 0 
L 5113 0 
L 5113 2094 
Q 5113 2597 4934 2840 
Q 4756 3084 4391 3084 
Q 3944 3084 3684 2787 
Q 3425 2491 3425 1978 
L 3425 0 
L 2847 0 
L 2847 2094 
Q 2847 2600 2669 2842 
Q 2491 3084 2119 3084 
Q 1678 3084 1418 2786 
Q 1159 2488 1159 1978 
L 1159 0 
L 581 0 
L 581 3500 
L 1159 3500 
L 1159 2956 
Q 1356 3278 1631 3431 
Q 1906 3584 2284 3584 
Q 2666 3584 2933 3390 
Q 3200 3197 3328 2828 
z
" transform="scale(0.015625)"/>
      <path id="DejaVuSans-61" d="M 2194 1759 
Q 1497 1759 1228 1600 
Q 959 1441 959 1056 
Q 959 750 1161 570 
Q 1363 391 1709 391 
Q 2188 391 2477 730 
Q 2766 1069 2766 1631 
L 2766 1759 
L 2194 1759 
z
M 3341 1997 
L 3341 0 
L 2766 0 
L 2766 531 
Q 2569 213 2275 61 
Q 1981 -91 1556 -91 
Q 1019 -91 701 211 
Q 384 513 384 1019 
Q 384 1609 779 1909 
Q 1175 2209 1959 2209 
L 2766 2209 
L 2766 2266 
Q 2766 2663 2505 2880 
Q 2244 3097 1772 3097 
Q 1472 3097 1187 3025 
Q 903 2953 641 2809 
L 641 3341 
Q 956 3463 1253 3523 
Q 1550 3584 1831 3584 
Q 2591 3584 2966 3190 
Q 3341 2797 3341 1997 
z
" transform="scale(0.015625)"/>
      <path id="DejaVuSans-69" d="M 603 3500 
L 1178 3500 
L 1178 0 
L 603 0 
L 603 3500 
z
M 603 4863 
L 1178 4863 
L 1178 4134 
L 603 4134 
L 603 4863 
z
" transform="scale(0.015625)"/>
      <path id="DejaVuSans-73" d="M 2834 3397 
L 2834 2853 
Q 2591 2978 2328 3040 
Q 2066 3103 1784 3103 
Q 1356 3103 1142 2972 
Q 928 2841 928 2578 
Q 928 2378 1081 2264 
Q 1234 2150 1697 2047 
L 1894 2003 
Q 2506 1872 2764 1633 
Q 3022 1394 3022 966 
Q 3022 478 2636 193 
Q 2250 -91 1575 -91 
Q 1294 -91 989 -36 
Q 684 19 347 128 
L 347 722 
Q 666 556 975 473 
Q 1284 391 1588 391 
Q 1994 391 2212 530 
Q 2431 669 2431 922 
Q 2431 1156 2273 1281 
Q 2116 1406 1581 1522 
L 1381 1569 
Q 847 1681 609 1914 
Q 372 2147 372 2553 
Q 372 3047 722 3315 
Q 1072 3584 1716 3584 
Q 2034 3584 2315 3537 
Q 2597 3491 2834 3397 
z
" transform="scale(0.015625)"/>
      <path id="DejaVuSans-6e" d="M 3513 2113 
L 3513 0 
L 2938 0 
L 2938 2094 
Q 2938 2591 2744 2837 
Q 2550 3084 2163 3084 
Q 1697 3084 1428 2787 
Q 1159 2491 1159 1978 
L 1159 0 
L 581 0 
L 581 3500 
L 1159 3500 
L 1159 2956 
Q 1366 3272 1645 3428 
Q 1925 3584 2291 3584 
Q 2894 3584 3203 3211 
Q 3513 2838 3513 2113 
z
" transform="scale(0.015625)"/>
      <path id="DejaVuSans-3a" d="M 750 794 
L 1409 794 
L 1409 0 
L 750 0 
L 750 794 
z
M 750 3309 
L 1409 3309 
L 1409 2516 
L 750 2516 
L 750 3309 
z
" transform="scale(0.015625)"/>
      <path id="DejaVuSans-47" d="M 3809 666 
L 3809 1919 
L 2778 1919 
L 2778 2438 
L 4434 2438 
L 4434 434 
Q 4069 175 3628 42 
Q 3188 -91 2688 -91 
Q 1594 -91 976 548 
Q 359 1188 359 2328 
Q 359 3472 976 4111 
Q 1594 4750 2688 4750 
Q 3144 4750 3555 4637 
Q 3966 4525 4313 4306 
L 4313 3634 
Q 3963 3931 3569 4081 
Q 3175 4231 2741 4231 
Q 1884 4231 1454 3753 
Q 1025 3275 1025 2328 
Q 1025 1384 1454 906 
Q 1884 428 2741 428 
Q 3075 428 3337 486 
Q 3600 544 3809 666 
z
" transform="scale(0.015625)"/>
      <path id="DejaVuSans-76" d="M 191 3500 
L 800 3500 
L 1894 563 
L 2988 3500 
L 3597 3500 
L 2284 0 
L 1503 0 
L 191 3500 
z
" transform="scale(0.015625)"/>
      <path id="DejaVuSans-77" d="M 269 3500 
L 844 3500 
L 1563 769 
L 2278 3500 
L 2956 3500 
L 3675 769 
L 4391 3500 
L 4966 3500 
L 4050 0 
L 3372 0 
L 2619 2869 
L 1863 0 
L 1184 0 
L 269 3500 
z
" transform="scale(0.015625)"/>
      <path id="DejaVuSans-74" d="M 1172 4494 
L 1172 3500 
L 2356 3500 
L 2356 3053 
L 1172 3053 
L 1172 1153 
Q 1172 725 1289 603 
Q 1406 481 1766 481 
L 2356 481 
L 2356 0 
L 1766 0 
Q 1100 0 847 248 
Q 594 497 594 1153 
L 594 3053 
L 172 3053 
L 172 3500 
L 594 3500 
L 594 4494 
L 1172 4494 
z
" transform="scale(0.015625)"/>
      <path id="DejaVuSans-64" d="M 2906 2969 
L 2906 4863 
L 3481 4863 
L 3481 0 
L 2906 0 
L 2906 525 
Q 2725 213 2448 61 
Q 2172 -91 1784 -91 
Q 1150 -91 751 415 
Q 353 922 353 1747 
Q 353 2572 751 3078 
Q 1150 3584 1784 3584 
Q 2172 3584 2448 3432 
Q 2725 3281 2906 2969 
z
M 947 1747 
Q 947 1113 1208 752 
Q 1469 391 1925 391 
Q 2381 391 2643 752 
Q 2906 1113 2906 1747 
Q 2906 2381 2643 2742 
Q 2381 3103 1925 3103 
Q 1469 3103 1208 2742 
Q 947 2381 947 1747 
z
" transform="scale(0.015625)"/>
      <path id="DejaVuSans-75" d="M 544 1381 
L 544 3500 
L 1119 3500 
L 1119 1403 
Q 1119 906 1312 657 
Q 1506 409 1894 409 
Q 2359 409 2629 706 
Q 2900 1003 2900 1516 
L 2900 3500 
L 3475 3500 
L 3475 0 
L 2900 0 
L 2900 538 
Q 2691 219 2414 64 
Q 2138 -91 1772 -91 
Q 1169 -91 856 284 
Q 544 659 544 1381 
z
M 1991 3584 
L 1991 3584 
z
" transform="scale(0.015625)"/>
     </defs>
     <use xlink:href="#DejaVuSans-46"/>
     <use xlink:href="#DejaVuSans-31" x="57.519531"/>
     <use xlink:href="#DejaVuSans-20" x="121.142578"/>
     <use xlink:href="#DejaVuSans-53" x="152.929688"/>
     <use xlink:href="#DejaVuSans-63" x="216.40625"/>
     <use xlink:href="#DejaVuSans-6f" x="271.386719"/>
     <use xlink:href="#DejaVuSans-72" x="332.568359"/>
     <use xlink:href="#DejaVuSans-65" x="371.431641"/>
     <use xlink:href="#DejaVuSans-20" x="432.955078"/>
     <use xlink:href="#DejaVuSans-43" x="464.742188"/>
     <use xlink:href="#DejaVuSans-6f" x="534.566406"/>
     <use xlink:href="#DejaVuSans-6d" x="595.748047"/>
     <use xlink:href="#DejaVuSans-70" x="693.160156"/>
     <use xlink:href="#DejaVuSans-61" x="756.636719"/>
     <use xlink:href="#DejaVuSans-72" x="817.916016"/>
     <use xlink:href="#DejaVuSans-69" x="859.029297"/>
     <use xlink:href="#DejaVuSans-73" x="886.8125"/>
     <use xlink:href="#DejaVuSans-6f" x="938.912109"/>
     <use xlink:href="#DejaVuSans-6e" x="1000.09375"/>
     <use xlink:href="#DejaVuSans-3a" x="1063.472656"/>
     <use xlink:href="#DejaVuSans-20" x="1097.164062"/>
     <use xlink:href="#DejaVuSans-47" x="1128.951172"/>
     <use xlink:href="#DejaVuSans-72" x="1206.441406"/>
     <use xlink:href="#DejaVuSans-61" x="1247.554688"/>
     <use xlink:href="#DejaVuSans-70" x="1308.833984"/>
     <use xlink:href="#DejaVuSans-68" x="1372.310547"/>
     <use xlink:href="#DejaVuSans-43" x="1435.689453"/>
     <use xlink:href="#DejaVuSans-6f" x="1505.513672"/>
     <use xlink:href="#DejaVuSans-6e" x="1566.695312"/>
     <use xlink:href="#DejaVuSans-76" x="1630.074219"/>
     <use xlink:href="#DejaVuSans-20" x="1689.253906"/>
     <use xlink:href="#DejaVuSans-77" x="1721.041016"/>
     <use xlink:href="#DejaVuSans-69" x="1802.828125"/>
     <use xlink:href="#DejaVuSans-74" x="1830.611328"/>
     <use xlink:href="#DejaVuSans-68" x="1869.820312"/>
     <use xlink:href="#DejaVuSans-20" x="1933.199219"/>
     <use xlink:href="#DejaVuSans-61" x="1964.986328"/>
     <use xlink:href="#DejaVuSans-6e" x="2026.265625"/>
     <use xlink:href="#DejaVuSans-64" x="2089.644531"/>
     <use xlink:href="#DejaVuSans-20" x="2153.121094"/>
     <use xlink:href="#DejaVuSans-77" x="2184.908203"/>
     <use xlink:href="#DejaVuSans-69" x="2266.695312"/>
     <use xlink:href="#DejaVuSans-74" x="2294.478516"/>
     <use xlink:href="#DejaVuSans-68" x="2333.6875"/>
     <use xlink:href="#DejaVuSans-6f" x="2397.066406"/>
     <use xlink:href="#DejaVuSans-75" x="2458.248047"/>
     <use xlink:href="#DejaVuSans-74" x="2521.626953"/>
     <use xlink:href="#DejaVuSans-20" x="2560.835938"/>
     <use xlink:href="#DejaVuSans-64" x="2592.623047"/>
     <use xlink:href="#DejaVuSans-72" x="2656.099609"/>
     <use xlink:href="#DejaVuSans-6f" x="2694.962891"/>
     <use xlink:href="#DejaVuSans-70" x="2756.144531"/>
     <use xlink:href="#DejaVuSans-6f" x="2819.621094"/>
     <use xlink:href="#DejaVuSans-75" x="2880.802734"/>
     <use xlink:href="#DejaVuSans-74" x="2944.181641"/>
    </g>
   </g>
   <g id="legend_1">
    <g id="patch_7">
     <path d="M 97 89.7525 
L 309.717188 89.7525 
Q 311.717188 89.7525 311.717188 87.7525 
L 311.717188 58.84 
Q 311.717188 56.84 309.717188 56.84 
L 97 56.84 
Q 95 56.84 95 58.84 
L 95 87.7525 
Q 95 89.7525 97 89.7525 
z
" style="fill: #ffffff; opacity: 0.8; stroke: #cccccc; stroke-linejoin: miter"/>
    </g>
    <g id="line2d_27">
     <path d="M 99 64.938438 
L 109 64.938438 
L 119 64.938438 
" style="fill: none; stroke: #1f77b4; stroke-width: 1.5; stroke-linecap: square"/>
     <g>
      <use xlink:href="#m7457a91e53" x="109" y="64.938438" style="fill: #1f77b4; stroke: #1f77b4"/>
     </g>
    </g>
    <g id="text_16">
     <!-- GraphConv_2layers with dropout -->
     <g transform="translate(127 68.438438) scale(0.1 -0.1)">
      <defs>
       <path id="DejaVuSans-5f" d="M 3263 -1063 
L 3263 -1509 
L -63 -1509 
L -63 -1063 
L 3263 -1063 
z
" transform="scale(0.015625)"/>
       <path id="DejaVuSans-6c" d="M 603 4863 
L 1178 4863 
L 1178 0 
L 603 0 
L 603 4863 
z
" transform="scale(0.015625)"/>
       <path id="DejaVuSans-79" d="M 2059 -325 
Q 1816 -950 1584 -1140 
Q 1353 -1331 966 -1331 
L 506 -1331 
L 506 -850 
L 844 -850 
Q 1081 -850 1212 -737 
Q 1344 -625 1503 -206 
L 1606 56 
L 191 3500 
L 800 3500 
L 1894 763 
L 2988 3500 
L 3597 3500 
L 2059 -325 
z
" transform="scale(0.015625)"/>
      </defs>
      <use xlink:href="#DejaVuSans-47"/>
      <use xlink:href="#DejaVuSans-72" x="77.490234"/>
      <use xlink:href="#DejaVuSans-61" x="118.603516"/>
      <use xlink:href="#DejaVuSans-70" x="179.882812"/>
      <use xlink:href="#DejaVuSans-68" x="243.359375"/>
      <use xlink:href="#DejaVuSans-43" x="306.738281"/>
      <use xlink:href="#DejaVuSans-6f" x="376.5625"/>
      <use xlink:href="#DejaVuSans-6e" x="437.744141"/>
      <use xlink:href="#DejaVuSans-76" x="501.123047"/>
      <use xlink:href="#DejaVuSans-5f" x="560.302734"/>
      <use xlink:href="#DejaVuSans-32" x="610.302734"/>
      <use xlink:href="#DejaVuSans-6c" x="673.925781"/>
      <use xlink:href="#DejaVuSans-61" x="701.708984"/>
      <use xlink:href="#DejaVuSans-79" x="762.988281"/>
      <use xlink:href="#DejaVuSans-65" x="822.167969"/>
      <use xlink:href="#DejaVuSans-72" x="883.691406"/>
      <use xlink:href="#DejaVuSans-73" x="924.804688"/>
      <use xlink:href="#DejaVuSans-20" x="976.904297"/>
      <use xlink:href="#DejaVuSans-77" x="1008.691406"/>
      <use xlink:href="#DejaVuSans-69" x="1090.478516"/>
      <use xlink:href="#DejaVuSans-74" x="1118.261719"/>
      <use xlink:href="#DejaVuSans-68" x="1157.470703"/>
      <use xlink:href="#DejaVuSans-20" x="1220.849609"/>
      <use xlink:href="#DejaVuSans-64" x="1252.636719"/>
      <use xlink:href="#DejaVuSans-72" x="1316.113281"/>
      <use xlink:href="#DejaVuSans-6f" x="1354.976562"/>
      <use xlink:href="#DejaVuSans-70" x="1416.158203"/>
      <use xlink:href="#DejaVuSans-6f" x="1479.634766"/>
      <use xlink:href="#DejaVuSans-75" x="1540.816406"/>
      <use xlink:href="#DejaVuSans-74" x="1604.195312"/>
     </g>
    </g>
    <g id="line2d_28">
     <path d="M 99 79.894688 
L 109 79.894688 
L 119 79.894688 
" style="fill: none; stroke: #ff7f0e; stroke-width: 1.5; stroke-linecap: square"/>
     <g>
      <use xlink:href="#mdc2557b516" x="109" y="79.894688" style="fill: #ff7f0e; stroke: #ff7f0e"/>
     </g>
    </g>
    <g id="text_17">
     <!-- GraphConv_2layers without dropout -->
     <g transform="translate(127 83.394688) scale(0.1 -0.1)">
      <use xlink:href="#DejaVuSans-47"/>
      <use xlink:href="#DejaVuSans-72" x="77.490234"/>
      <use xlink:href="#DejaVuSans-61" x="118.603516"/>
      <use xlink:href="#DejaVuSans-70" x="179.882812"/>
      <use xlink:href="#DejaVuSans-68" x="243.359375"/>
      <use xlink:href="#DejaVuSans-43" x="306.738281"/>
      <use xlink:href="#DejaVuSans-6f" x="376.5625"/>
      <use xlink:href="#DejaVuSans-6e" x="437.744141"/>
      <use xlink:href="#DejaVuSans-76" x="501.123047"/>
      <use xlink:href="#DejaVuSans-5f" x="560.302734"/>
      <use xlink:href="#DejaVuSans-32" x="610.302734"/>
      <use xlink:href="#DejaVuSans-6c" x="673.925781"/>
      <use xlink:href="#DejaVuSans-61" x="701.708984"/>
      <use xlink:href="#DejaVuSans-79" x="762.988281"/>
      <use xlink:href="#DejaVuSans-65" x="822.167969"/>
      <use xlink:href="#DejaVuSans-72" x="883.691406"/>
      <use xlink:href="#DejaVuSans-73" x="924.804688"/>
      <use xlink:href="#DejaVuSans-20" x="976.904297"/>
      <use xlink:href="#DejaVuSans-77" x="1008.691406"/>
      <use xlink:href="#DejaVuSans-69" x="1090.478516"/>
      <use xlink:href="#DejaVuSans-74" x="1118.261719"/>
      <use xlink:href="#DejaVuSans-68" x="1157.470703"/>
      <use xlink:href="#DejaVuSans-6f" x="1220.849609"/>
      <use xlink:href="#DejaVuSans-75" x="1282.03125"/>
      <use xlink:href="#DejaVuSans-74" x="1345.410156"/>
      <use xlink:href="#DejaVuSans-20" x="1384.619141"/>
      <use xlink:href="#DejaVuSans-64" x="1416.40625"/>
      <use xlink:href="#DejaVuSans-72" x="1479.882812"/>
      <use xlink:href="#DejaVuSans-6f" x="1518.746094"/>
      <use xlink:href="#DejaVuSans-70" x="1579.927734"/>
      <use xlink:href="#DejaVuSans-6f" x="1643.404297"/>
      <use xlink:href="#DejaVuSans-75" x="1704.585938"/>
      <use xlink:href="#DejaVuSans-74" x="1767.964844"/>
     </g>
    </g>
   </g>
  </g>
 </g>
 <defs>
  <clipPath id="p8a0a67ac4b">
   <rect x="90" y="51.84" width="558" height="332.64"/>
  </clipPath>
 </defs>
</svg>
