<?xml version="1.0" encoding="utf-8" standalone="no"?>
<!DOCTYPE svg PUBLIC "-//W3C//DTD SVG 1.1//EN"
  "http://www.w3.org/Graphics/SVG/1.1/DTD/svg11.dtd">
<svg xmlns:xlink="http://www.w3.org/1999/xlink" width="720pt" height="432pt" viewBox="0 0 720 432" xmlns="http://www.w3.org/2000/svg" version="1.1">
 <metadata>
  <rdf:RDF xmlns:dc="http://purl.org/dc/elements/1.1/" xmlns:cc="http://creativecommons.org/ns#" xmlns:rdf="http://www.w3.org/1999/02/22-rdf-syntax-ns#">
   <cc:Work>
    <dc:type rdf:resource="http://purl.org/dc/dcmitype/StillImage"/>
    <dc:date>2024-11-27T21:24:48.031267</dc:date>
    <dc:format>image/svg+xml</dc:format>
    <dc:creator>
     <cc:Agent>
      <dc:title>Matplotlib v3.9.2, https://matplotlib.org/</dc:title>
     </cc:Agent>
    </dc:creator>
   </cc:Work>
  </rdf:RDF>
 </metadata>
 <defs>
  <style type="text/css">*{stroke-linejoin: round; stroke-linecap: butt}</style>
 </defs>
 <g id="figure_1">
  <g id="patch_1">
   <path d="M 0 432 
L 720 432 
L 720 0 
L 0 0 
z
" style="fill: #ffffff"/>
  </g>
  <g id="axes_1">
   <g id="patch_2">
    <path d="M 90 384.48 
L 648 384.48 
L 648 51.84 
L 90 51.84 
z
" style="fill: #ffffff"/>
   </g>
   <g id="matplotlib.axis_1">
    <g id="xtick_1">
     <g id="line2d_1">
      <path d="M 110.239669 384.48 
L 110.239669 51.84 
" clip-path="url(#p98e1ec5f18)" style="fill: none; stroke: #b0b0b0; stroke-width: 0.8; stroke-linecap: square"/>
     </g>
     <g id="line2d_2">
      <defs>
       <path id="m0ced8d0ba5" d="M 0 0 
L 0 3.5 
" style="stroke: #000000; stroke-width: 0.8"/>
      </defs>
      <g>
       <use xlink:href="#m0ced8d0ba5" x="110.239669" y="384.48" style="stroke: #000000; stroke-width: 0.8"/>
      </g>
     </g>
     <g id="text_1">
      <!-- 0 -->
      <g transform="translate(107.058419 399.078438) scale(0.1 -0.1)">
       <defs>
        <path id="DejaVuSans-30" d="M 2034 4250 
Q 1547 4250 1301 3770 
Q 1056 3291 1056 2328 
Q 1056 1369 1301 889 
Q 1547 409 2034 409 
Q 2525 409 2770 889 
Q 3016 1369 3016 2328 
Q 3016 3291 2770 3770 
Q 2525 4250 2034 4250 
z
M 2034 4750 
Q 2819 4750 3233 4129 
Q 3647 3509 3647 2328 
Q 3647 1150 3233 529 
Q 2819 -91 2034 -91 
Q 1250 -91 836 529 
Q 422 1150 422 2328 
Q 422 3509 836 4129 
Q 1250 4750 2034 4750 
z
" transform="scale(0.015625)"/>
       </defs>
       <use xlink:href="#DejaVuSans-30"/>
      </g>
     </g>
    </g>
    <g id="xtick_2">
     <g id="line2d_3">
      <path d="M 212.719008 384.48 
L 212.719008 51.84 
" clip-path="url(#p98e1ec5f18)" style="fill: none; stroke: #b0b0b0; stroke-width: 0.8; stroke-linecap: square"/>
     </g>
     <g id="line2d_4">
      <g>
       <use xlink:href="#m0ced8d0ba5" x="212.719008" y="384.48" style="stroke: #000000; stroke-width: 0.8"/>
      </g>
     </g>
     <g id="text_2">
      <!-- 20 -->
      <g transform="translate(206.356508 399.078438) scale(0.1 -0.1)">
       <defs>
        <path id="DejaVuSans-32" d="M 1228 531 
L 3431 531 
L 3431 0 
L 469 0 
L 469 531 
Q 828 903 1448 1529 
Q 2069 2156 2228 2338 
Q 2531 2678 2651 2914 
Q 2772 3150 2772 3378 
Q 2772 3750 2511 3984 
Q 2250 4219 1831 4219 
Q 1534 4219 1204 4116 
Q 875 4013 500 3803 
L 500 4441 
Q 881 4594 1212 4672 
Q 1544 4750 1819 4750 
Q 2544 4750 2975 4387 
Q 3406 4025 3406 3419 
Q 3406 3131 3298 2873 
Q 3191 2616 2906 2266 
Q 2828 2175 2409 1742 
Q 1991 1309 1228 531 
z
" transform="scale(0.015625)"/>
       </defs>
       <use xlink:href="#DejaVuSans-32"/>
       <use xlink:href="#DejaVuSans-30" x="63.623047"/>
      </g>
     </g>
    </g>
    <g id="xtick_3">
     <g id="line2d_5">
      <path d="M 315.198347 384.48 
L 315.198347 51.84 
" clip-path="url(#p98e1ec5f18)" style="fill: none; stroke: #b0b0b0; stroke-width: 0.8; stroke-linecap: square"/>
     </g>
     <g id="line2d_6">
      <g>
       <use xlink:href="#m0ced8d0ba5" x="315.198347" y="384.48" style="stroke: #000000; stroke-width: 0.8"/>
      </g>
     </g>
     <g id="text_3">
      <!-- 40 -->
      <g transform="translate(308.835847 399.078438) scale(0.1 -0.1)">
       <defs>
        <path id="DejaVuSans-34" d="M 2419 4116 
L 825 1625 
L 2419 1625 
L 2419 4116 
z
M 2253 4666 
L 3047 4666 
L 3047 1625 
L 3713 1625 
L 3713 1100 
L 3047 1100 
L 3047 0 
L 2419 0 
L 2419 1100 
L 313 1100 
L 313 1709 
L 2253 4666 
z
" transform="scale(0.015625)"/>
       </defs>
       <use xlink:href="#DejaVuSans-34"/>
       <use xlink:href="#DejaVuSans-30" x="63.623047"/>
      </g>
     </g>
    </g>
    <g id="xtick_4">
     <g id="line2d_7">
      <path d="M 417.677686 384.48 
L 417.677686 51.84 
" clip-path="url(#p98e1ec5f18)" style="fill: none; stroke: #b0b0b0; stroke-width: 0.8; stroke-linecap: square"/>
     </g>
     <g id="line2d_8">
      <g>
       <use xlink:href="#m0ced8d0ba5" x="417.677686" y="384.48" style="stroke: #000000; stroke-width: 0.8"/>
      </g>
     </g>
     <g id="text_4">
      <!-- 60 -->
      <g transform="translate(411.315186 399.078438) scale(0.1 -0.1)">
       <defs>
        <path id="DejaVuSans-36" d="M 2113 2584 
Q 1688 2584 1439 2293 
Q 1191 2003 1191 1497 
Q 1191 994 1439 701 
Q 1688 409 2113 409 
Q 2538 409 2786 701 
Q 3034 994 3034 1497 
Q 3034 2003 2786 2293 
Q 2538 2584 2113 2584 
z
M 3366 4563 
L 3366 3988 
Q 3128 4100 2886 4159 
Q 2644 4219 2406 4219 
Q 1781 4219 1451 3797 
Q 1122 3375 1075 2522 
Q 1259 2794 1537 2939 
Q 1816 3084 2150 3084 
Q 2853 3084 3261 2657 
Q 3669 2231 3669 1497 
Q 3669 778 3244 343 
Q 2819 -91 2113 -91 
Q 1303 -91 875 529 
Q 447 1150 447 2328 
Q 447 3434 972 4092 
Q 1497 4750 2381 4750 
Q 2619 4750 2861 4703 
Q 3103 4656 3366 4563 
z
" transform="scale(0.015625)"/>
       </defs>
       <use xlink:href="#DejaVuSans-36"/>
       <use xlink:href="#DejaVuSans-30" x="63.623047"/>
      </g>
     </g>
    </g>
    <g id="xtick_5">
     <g id="line2d_9">
      <path d="M 520.157025 384.48 
L 520.157025 51.84 
" clip-path="url(#p98e1ec5f18)" style="fill: none; stroke: #b0b0b0; stroke-width: 0.8; stroke-linecap: square"/>
     </g>
     <g id="line2d_10">
      <g>
       <use xlink:href="#m0ced8d0ba5" x="520.157025" y="384.48" style="stroke: #000000; stroke-width: 0.8"/>
      </g>
     </g>
     <g id="text_5">
      <!-- 80 -->
      <g transform="translate(513.794525 399.078438) scale(0.1 -0.1)">
       <defs>
        <path id="DejaVuSans-38" d="M 2034 2216 
Q 1584 2216 1326 1975 
Q 1069 1734 1069 1313 
Q 1069 891 1326 650 
Q 1584 409 2034 409 
Q 2484 409 2743 651 
Q 3003 894 3003 1313 
Q 3003 1734 2745 1975 
Q 2488 2216 2034 2216 
z
M 1403 2484 
Q 997 2584 770 2862 
Q 544 3141 544 3541 
Q 544 4100 942 4425 
Q 1341 4750 2034 4750 
Q 2731 4750 3128 4425 
Q 3525 4100 3525 3541 
Q 3525 3141 3298 2862 
Q 3072 2584 2669 2484 
Q 3125 2378 3379 2068 
Q 3634 1759 3634 1313 
Q 3634 634 3220 271 
Q 2806 -91 2034 -91 
Q 1263 -91 848 271 
Q 434 634 434 1313 
Q 434 1759 690 2068 
Q 947 2378 1403 2484 
z
M 1172 3481 
Q 1172 3119 1398 2916 
Q 1625 2713 2034 2713 
Q 2441 2713 2670 2916 
Q 2900 3119 2900 3481 
Q 2900 3844 2670 4047 
Q 2441 4250 2034 4250 
Q 1625 4250 1398 4047 
Q 1172 3844 1172 3481 
z
" transform="scale(0.015625)"/>
       </defs>
       <use xlink:href="#DejaVuSans-38"/>
       <use xlink:href="#DejaVuSans-30" x="63.623047"/>
      </g>
     </g>
    </g>
    <g id="xtick_6">
     <g id="line2d_11">
      <path d="M 622.636364 384.48 
L 622.636364 51.84 
" clip-path="url(#p98e1ec5f18)" style="fill: none; stroke: #b0b0b0; stroke-width: 0.8; stroke-linecap: square"/>
     </g>
     <g id="line2d_12">
      <g>
       <use xlink:href="#m0ced8d0ba5" x="622.636364" y="384.48" style="stroke: #000000; stroke-width: 0.8"/>
      </g>
     </g>
     <g id="text_6">
      <!-- 100 -->
      <g transform="translate(613.092614 399.078438) scale(0.1 -0.1)">
       <defs>
        <path id="DejaVuSans-31" d="M 794 531 
L 1825 531 
L 1825 4091 
L 703 3866 
L 703 4441 
L 1819 4666 
L 2450 4666 
L 2450 531 
L 3481 531 
L 3481 0 
L 794 0 
L 794 531 
z
" transform="scale(0.015625)"/>
       </defs>
       <use xlink:href="#DejaVuSans-31"/>
       <use xlink:href="#DejaVuSans-30" x="63.623047"/>
       <use xlink:href="#DejaVuSans-30" x="127.246094"/>
      </g>
     </g>
    </g>
    <g id="text_7">
     <!-- Epoch -->
     <g transform="translate(353.689062 412.756563) scale(0.1 -0.1)">
      <defs>
       <path id="DejaVuSans-45" d="M 628 4666 
L 3578 4666 
L 3578 4134 
L 1259 4134 
L 1259 2753 
L 3481 2753 
L 3481 2222 
L 1259 2222 
L 1259 531 
L 3634 531 
L 3634 0 
L 628 0 
L 628 4666 
z
" transform="scale(0.015625)"/>
       <path id="DejaVuSans-70" d="M 1159 525 
L 1159 -1331 
L 581 -1331 
L 581 3500 
L 1159 3500 
L 1159 2969 
Q 1341 3281 1617 3432 
Q 1894 3584 2278 3584 
Q 2916 3584 3314 3078 
Q 3713 2572 3713 1747 
Q 3713 922 3314 415 
Q 2916 -91 2278 -91 
Q 1894 -91 1617 61 
Q 1341 213 1159 525 
z
M 3116 1747 
Q 3116 2381 2855 2742 
Q 2594 3103 2138 3103 
Q 1681 3103 1420 2742 
Q 1159 2381 1159 1747 
Q 1159 1113 1420 752 
Q 1681 391 2138 391 
Q 2594 391 2855 752 
Q 3116 1113 3116 1747 
z
" transform="scale(0.015625)"/>
       <path id="DejaVuSans-6f" d="M 1959 3097 
Q 1497 3097 1228 2736 
Q 959 2375 959 1747 
Q 959 1119 1226 758 
Q 1494 397 1959 397 
Q 2419 397 2687 759 
Q 2956 1122 2956 1747 
Q 2956 2369 2687 2733 
Q 2419 3097 1959 3097 
z
M 1959 3584 
Q 2709 3584 3137 3096 
Q 3566 2609 3566 1747 
Q 3566 888 3137 398 
Q 2709 -91 1959 -91 
Q 1206 -91 779 398 
Q 353 888 353 1747 
Q 353 2609 779 3096 
Q 1206 3584 1959 3584 
z
" transform="scale(0.015625)"/>
       <path id="DejaVuSans-63" d="M 3122 3366 
L 3122 2828 
Q 2878 2963 2633 3030 
Q 2388 3097 2138 3097 
Q 1578 3097 1268 2742 
Q 959 2388 959 1747 
Q 959 1106 1268 751 
Q 1578 397 2138 397 
Q 2388 397 2633 464 
Q 2878 531 3122 666 
L 3122 134 
Q 2881 22 2623 -34 
Q 2366 -91 2075 -91 
Q 1284 -91 818 406 
Q 353 903 353 1747 
Q 353 2603 823 3093 
Q 1294 3584 2113 3584 
Q 2378 3584 2631 3529 
Q 2884 3475 3122 3366 
z
" transform="scale(0.015625)"/>
       <path id="DejaVuSans-68" d="M 3513 2113 
L 3513 0 
L 2938 0 
L 2938 2094 
Q 2938 2591 2744 2837 
Q 2550 3084 2163 3084 
Q 1697 3084 1428 2787 
Q 1159 2491 1159 1978 
L 1159 0 
L 581 0 
L 581 4863 
L 1159 4863 
L 1159 2956 
Q 1366 3272 1645 3428 
Q 1925 3584 2291 3584 
Q 2894 3584 3203 3211 
Q 3513 2838 3513 2113 
z
" transform="scale(0.015625)"/>
      </defs>
      <use xlink:href="#DejaVuSans-45"/>
      <use xlink:href="#DejaVuSans-70" x="63.183594"/>
      <use xlink:href="#DejaVuSans-6f" x="126.660156"/>
      <use xlink:href="#DejaVuSans-63" x="187.841797"/>
      <use xlink:href="#DejaVuSans-68" x="242.822266"/>
     </g>
    </g>
   </g>
   <g id="matplotlib.axis_2">
    <g id="ytick_1">
     <g id="line2d_13">
      <path d="M 90 354.554454 
L 648 354.554454 
" clip-path="url(#p98e1ec5f18)" style="fill: none; stroke: #b0b0b0; stroke-width: 0.8; stroke-linecap: square"/>
     </g>
     <g id="line2d_14">
      <defs>
       <path id="me8474d6450" d="M 0 0 
L -3.5 0 
" style="stroke: #000000; stroke-width: 0.8"/>
      </defs>
      <g>
       <use xlink:href="#me8474d6450" x="90" y="354.554454" style="stroke: #000000; stroke-width: 0.8"/>
      </g>
     </g>
     <g id="text_8">
      <!-- 0.70 -->
      <g transform="translate(60.734375 358.353673) scale(0.1 -0.1)">
       <defs>
        <path id="DejaVuSans-2e" d="M 684 794 
L 1344 794 
L 1344 0 
L 684 0 
L 684 794 
z
" transform="scale(0.015625)"/>
        <path id="DejaVuSans-37" d="M 525 4666 
L 3525 4666 
L 3525 4397 
L 1831 0 
L 1172 0 
L 2766 4134 
L 525 4134 
L 525 4666 
z
" transform="scale(0.015625)"/>
       </defs>
       <use xlink:href="#DejaVuSans-30"/>
       <use xlink:href="#DejaVuSans-2e" x="63.623047"/>
       <use xlink:href="#DejaVuSans-37" x="95.410156"/>
       <use xlink:href="#DejaVuSans-30" x="159.033203"/>
      </g>
     </g>
    </g>
    <g id="ytick_2">
     <g id="line2d_15">
      <path d="M 90 289.043189 
L 648 289.043189 
" clip-path="url(#p98e1ec5f18)" style="fill: none; stroke: #b0b0b0; stroke-width: 0.8; stroke-linecap: square"/>
     </g>
     <g id="line2d_16">
      <g>
       <use xlink:href="#me8474d6450" x="90" y="289.043189" style="stroke: #000000; stroke-width: 0.8"/>
      </g>
     </g>
     <g id="text_9">
      <!-- 0.75 -->
      <g transform="translate(60.734375 292.842408) scale(0.1 -0.1)">
       <defs>
        <path id="DejaVuSans-35" d="M 691 4666 
L 3169 4666 
L 3169 4134 
L 1269 4134 
L 1269 2991 
Q 1406 3038 1543 3061 
Q 1681 3084 1819 3084 
Q 2600 3084 3056 2656 
Q 3513 2228 3513 1497 
Q 3513 744 3044 326 
Q 2575 -91 1722 -91 
Q 1428 -91 1123 -41 
Q 819 9 494 109 
L 494 744 
Q 775 591 1075 516 
Q 1375 441 1709 441 
Q 2250 441 2565 725 
Q 2881 1009 2881 1497 
Q 2881 1984 2565 2268 
Q 2250 2553 1709 2553 
Q 1456 2553 1204 2497 
Q 953 2441 691 2322 
L 691 4666 
z
" transform="scale(0.015625)"/>
       </defs>
       <use xlink:href="#DejaVuSans-30"/>
       <use xlink:href="#DejaVuSans-2e" x="63.623047"/>
       <use xlink:href="#DejaVuSans-37" x="95.410156"/>
       <use xlink:href="#DejaVuSans-35" x="159.033203"/>
      </g>
     </g>
    </g>
    <g id="ytick_3">
     <g id="line2d_17">
      <path d="M 90 223.531924 
L 648 223.531924 
" clip-path="url(#p98e1ec5f18)" style="fill: none; stroke: #b0b0b0; stroke-width: 0.8; stroke-linecap: square"/>
     </g>
     <g id="line2d_18">
      <g>
       <use xlink:href="#me8474d6450" x="90" y="223.531924" style="stroke: #000000; stroke-width: 0.8"/>
      </g>
     </g>
     <g id="text_10">
      <!-- 0.80 -->
      <g transform="translate(60.734375 227.331142) scale(0.1 -0.1)">
       <use xlink:href="#DejaVuSans-30"/>
       <use xlink:href="#DejaVuSans-2e" x="63.623047"/>
       <use xlink:href="#DejaVuSans-38" x="95.410156"/>
       <use xlink:href="#DejaVuSans-30" x="159.033203"/>
      </g>
     </g>
    </g>
    <g id="ytick_4">
     <g id="line2d_19">
      <path d="M 90 158.020659 
L 648 158.020659 
" clip-path="url(#p98e1ec5f18)" style="fill: none; stroke: #b0b0b0; stroke-width: 0.8; stroke-linecap: square"/>
     </g>
     <g id="line2d_20">
      <g>
       <use xlink:href="#me8474d6450" x="90" y="158.020659" style="stroke: #000000; stroke-width: 0.8"/>
      </g>
     </g>
     <g id="text_11">
      <!-- 0.85 -->
      <g transform="translate(60.734375 161.819877) scale(0.1 -0.1)">
       <use xlink:href="#DejaVuSans-30"/>
       <use xlink:href="#DejaVuSans-2e" x="63.623047"/>
       <use xlink:href="#DejaVuSans-38" x="95.410156"/>
       <use xlink:href="#DejaVuSans-35" x="159.033203"/>
      </g>
     </g>
    </g>
    <g id="ytick_5">
     <g id="line2d_21">
      <path d="M 90 92.509393 
L 648 92.509393 
" clip-path="url(#p98e1ec5f18)" style="fill: none; stroke: #b0b0b0; stroke-width: 0.8; stroke-linecap: square"/>
     </g>
     <g id="line2d_22">
      <g>
       <use xlink:href="#me8474d6450" x="90" y="92.509393" style="stroke: #000000; stroke-width: 0.8"/>
      </g>
     </g>
     <g id="text_12">
      <!-- 0.90 -->
      <g transform="translate(60.734375 96.308612) scale(0.1 -0.1)">
       <defs>
        <path id="DejaVuSans-39" d="M 703 97 
L 703 672 
Q 941 559 1184 500 
Q 1428 441 1663 441 
Q 2288 441 2617 861 
Q 2947 1281 2994 2138 
Q 2813 1869 2534 1725 
Q 2256 1581 1919 1581 
Q 1219 1581 811 2004 
Q 403 2428 403 3163 
Q 403 3881 828 4315 
Q 1253 4750 1959 4750 
Q 2769 4750 3195 4129 
Q 3622 3509 3622 2328 
Q 3622 1225 3098 567 
Q 2575 -91 1691 -91 
Q 1453 -91 1209 -44 
Q 966 3 703 97 
z
M 1959 2075 
Q 2384 2075 2632 2365 
Q 2881 2656 2881 3163 
Q 2881 3666 2632 3958 
Q 2384 4250 1959 4250 
Q 1534 4250 1286 3958 
Q 1038 3666 1038 3163 
Q 1038 2656 1286 2365 
Q 1534 2075 1959 2075 
z
" transform="scale(0.015625)"/>
       </defs>
       <use xlink:href="#DejaVuSans-30"/>
       <use xlink:href="#DejaVuSans-2e" x="63.623047"/>
       <use xlink:href="#DejaVuSans-39" x="95.410156"/>
       <use xlink:href="#DejaVuSans-30" x="159.033203"/>
      </g>
     </g>
    </g>
    <g id="text_13">
     <!-- F1 Score -->
     <g transform="translate(54.654687 239.808437) rotate(-90) scale(0.1 -0.1)">
      <defs>
       <path id="DejaVuSans-46" d="M 628 4666 
L 3309 4666 
L 3309 4134 
L 1259 4134 
L 1259 2759 
L 3109 2759 
L 3109 2228 
L 1259 2228 
L 1259 0 
L 628 0 
L 628 4666 
z
" transform="scale(0.015625)"/>
       <path id="DejaVuSans-20" transform="scale(0.015625)"/>
       <path id="DejaVuSans-53" d="M 3425 4513 
L 3425 3897 
Q 3066 4069 2747 4153 
Q 2428 4238 2131 4238 
Q 1616 4238 1336 4038 
Q 1056 3838 1056 3469 
Q 1056 3159 1242 3001 
Q 1428 2844 1947 2747 
L 2328 2669 
Q 3034 2534 3370 2195 
Q 3706 1856 3706 1288 
Q 3706 609 3251 259 
Q 2797 -91 1919 -91 
Q 1588 -91 1214 -16 
Q 841 59 441 206 
L 441 856 
Q 825 641 1194 531 
Q 1563 422 1919 422 
Q 2459 422 2753 634 
Q 3047 847 3047 1241 
Q 3047 1584 2836 1778 
Q 2625 1972 2144 2069 
L 1759 2144 
Q 1053 2284 737 2584 
Q 422 2884 422 3419 
Q 422 4038 858 4394 
Q 1294 4750 2059 4750 
Q 2388 4750 2728 4690 
Q 3069 4631 3425 4513 
z
" transform="scale(0.015625)"/>
       <path id="DejaVuSans-72" d="M 2631 2963 
Q 2534 3019 2420 3045 
Q 2306 3072 2169 3072 
Q 1681 3072 1420 2755 
Q 1159 2438 1159 1844 
L 1159 0 
L 581 0 
L 581 3500 
L 1159 3500 
L 1159 2956 
Q 1341 3275 1631 3429 
Q 1922 3584 2338 3584 
Q 2397 3584 2469 3576 
Q 2541 3569 2628 3553 
L 2631 2963 
z
" transform="scale(0.015625)"/>
       <path id="DejaVuSans-65" d="M 3597 1894 
L 3597 1613 
L 953 1613 
Q 991 1019 1311 708 
Q 1631 397 2203 397 
Q 2534 397 2845 478 
Q 3156 559 3463 722 
L 3463 178 
Q 3153 47 2828 -22 
Q 2503 -91 2169 -91 
Q 1331 -91 842 396 
Q 353 884 353 1716 
Q 353 2575 817 3079 
Q 1281 3584 2069 3584 
Q 2775 3584 3186 3129 
Q 3597 2675 3597 1894 
z
M 3022 2063 
Q 3016 2534 2758 2815 
Q 2500 3097 2075 3097 
Q 1594 3097 1305 2825 
Q 1016 2553 972 2059 
L 3022 2063 
z
" transform="scale(0.015625)"/>
      </defs>
      <use xlink:href="#DejaVuSans-46"/>
      <use xlink:href="#DejaVuSans-31" x="57.519531"/>
      <use xlink:href="#DejaVuSans-20" x="121.142578"/>
      <use xlink:href="#DejaVuSans-53" x="152.929688"/>
      <use xlink:href="#DejaVuSans-63" x="216.40625"/>
      <use xlink:href="#DejaVuSans-6f" x="271.386719"/>
      <use xlink:href="#DejaVuSans-72" x="332.568359"/>
      <use xlink:href="#DejaVuSans-65" x="371.431641"/>
     </g>
    </g>
   </g>
   <g id="line2d_23">
    <path d="M 115.363636 321.143709 
L 120.487603 320.488596 
L 125.61157 320.488596 
L 130.735537 314.068492 
L 135.859504 325.074385 
L 140.983471 304.896915 
L 146.107438 266.638336 
L 151.231405 260.349255 
L 156.355372 265.590156 
L 161.479339 295.070225 
L 166.603306 240.695875 
L 171.727273 216.58773 
L 176.85124 208.726378 
L 181.975207 222.745789 
L 187.099174 207.940243 
L 192.22314 265.066066 
L 197.347107 199.554801 
L 202.471074 178.722218 
L 207.595041 190.121179 
L 212.719008 186.452548 
L 217.842975 170.205754 
L 222.966942 218.68409 
L 228.090909 171.515979 
L 233.214876 185.928458 
L 238.338843 167.192236 
L 243.46281 203.616499 
L 248.586777 164.964853 
L 253.710744 173.08825 
L 258.834711 166.013033 
L 263.958678 163.78565 
L 269.082645 156.841456 
L 274.206612 174.791542 
L 279.330579 137.843189 
L 284.454545 141.642842 
L 289.578512 150.552374 
L 294.702479 135.484783 
L 299.826446 151.207487 
L 304.950413 178.067106 
L 310.07438 158.806794 
L 315.198347 161.427244 
L 320.322314 132.20922 
L 325.446281 148.718059 
L 330.570248 139.546482 
L 335.694215 158.806794 
L 340.818182 148.062946 
L 345.942149 138.760347 
L 351.066116 146.097608 
L 356.190083 251.83279 
L 361.31405 174.13643 
L 366.438017 160.772132 
L 371.561983 167.323258 
L 376.68595 175.446655 
L 381.809917 193.527764 
L 386.933884 140.070572 
L 392.057851 139.677504 
L 397.181818 152.648735 
L 402.305785 143.346135 
L 407.429752 150.683397 
L 412.553719 145.966586 
L 417.677686 124.216846 
L 422.801653 139.546482 
L 427.92562 136.532964 
L 433.049587 126.051161 
L 438.173554 130.505927 
L 443.297521 151.993622 
L 448.421488 122.251508 
L 453.545455 129.588769 
L 458.669421 134.305581 
L 463.793388 162.475425 
L 468.917355 128.016499 
L 474.041322 129.326724 
L 479.165289 162.21338 
L 484.289256 148.718059 
L 489.413223 151.33851 
L 494.53719 158.544749 
L 499.661157 108.625165 
L 504.785124 144.13227 
L 509.909091 125.789116 
L 515.033058 135.222738 
L 520.157025 240.040763 
L 525.280992 142.428977 
L 530.404959 149.242149 
L 535.528926 105.742669 
L 540.652893 153.696915 
L 545.77686 97.48825 
L 550.900826 100.1087 
L 556.024793 121.072305 
L 561.14876 86.744402 
L 566.272727 151.993622 
L 571.396694 137.319099 
L 576.520661 114.521179 
L 581.644628 83.992929 
L 586.768595 130.11286 
L 591.892562 109.93539 
L 597.016529 121.727418 
L 602.140496 120.155147 
L 607.264463 143.215113 
L 612.38843 88.18565 
L 617.512397 145.966586 
L 622.636364 105.611646 
" clip-path="url(#p98e1ec5f18)" style="fill: none; stroke: #1f77b4; stroke-width: 1.5; stroke-linecap: square"/>
    <defs>
     <path id="m2adbce16b9" d="M 0 3 
C 0.795609 3 1.55874 2.683901 2.12132 2.12132 
C 2.683901 1.55874 3 0.795609 3 0 
C 3 -0.795609 2.683901 -1.55874 2.12132 -2.12132 
C 1.55874 -2.683901 0.795609 -3 0 -3 
C -0.795609 -3 -1.55874 -2.683901 -2.12132 -2.12132 
C -2.683901 -1.55874 -3 -0.795609 -3 0 
C -3 0.795609 -2.683901 1.55874 -2.12132 2.12132 
C -1.55874 2.683901 -0.795609 3 0 3 
z
" style="stroke: #1f77b4"/>
    </defs>
    <g clip-path="url(#p98e1ec5f18)">
     <use xlink:href="#m2adbce16b9" x="115.363636" y="321.143709" style="fill: #1f77b4; stroke: #1f77b4"/>
     <use xlink:href="#m2adbce16b9" x="120.487603" y="320.488596" style="fill: #1f77b4; stroke: #1f77b4"/>
     <use xlink:href="#m2adbce16b9" x="125.61157" y="320.488596" style="fill: #1f77b4; stroke: #1f77b4"/>
     <use xlink:href="#m2adbce16b9" x="130.735537" y="314.068492" style="fill: #1f77b4; stroke: #1f77b4"/>
     <use xlink:href="#m2adbce16b9" x="135.859504" y="325.074385" style="fill: #1f77b4; stroke: #1f77b4"/>
     <use xlink:href="#m2adbce16b9" x="140.983471" y="304.896915" style="fill: #1f77b4; stroke: #1f77b4"/>
     <use xlink:href="#m2adbce16b9" x="146.107438" y="266.638336" style="fill: #1f77b4; stroke: #1f77b4"/>
     <use xlink:href="#m2adbce16b9" x="151.231405" y="260.349255" style="fill: #1f77b4; stroke: #1f77b4"/>
     <use xlink:href="#m2adbce16b9" x="156.355372" y="265.590156" style="fill: #1f77b4; stroke: #1f77b4"/>
     <use xlink:href="#m2adbce16b9" x="161.479339" y="295.070225" style="fill: #1f77b4; stroke: #1f77b4"/>
     <use xlink:href="#m2adbce16b9" x="166.603306" y="240.695875" style="fill: #1f77b4; stroke: #1f77b4"/>
     <use xlink:href="#m2adbce16b9" x="171.727273" y="216.58773" style="fill: #1f77b4; stroke: #1f77b4"/>
     <use xlink:href="#m2adbce16b9" x="176.85124" y="208.726378" style="fill: #1f77b4; stroke: #1f77b4"/>
     <use xlink:href="#m2adbce16b9" x="181.975207" y="222.745789" style="fill: #1f77b4; stroke: #1f77b4"/>
     <use xlink:href="#m2adbce16b9" x="187.099174" y="207.940243" style="fill: #1f77b4; stroke: #1f77b4"/>
     <use xlink:href="#m2adbce16b9" x="192.22314" y="265.066066" style="fill: #1f77b4; stroke: #1f77b4"/>
     <use xlink:href="#m2adbce16b9" x="197.347107" y="199.554801" style="fill: #1f77b4; stroke: #1f77b4"/>
     <use xlink:href="#m2adbce16b9" x="202.471074" y="178.722218" style="fill: #1f77b4; stroke: #1f77b4"/>
     <use xlink:href="#m2adbce16b9" x="207.595041" y="190.121179" style="fill: #1f77b4; stroke: #1f77b4"/>
     <use xlink:href="#m2adbce16b9" x="212.719008" y="186.452548" style="fill: #1f77b4; stroke: #1f77b4"/>
     <use xlink:href="#m2adbce16b9" x="217.842975" y="170.205754" style="fill: #1f77b4; stroke: #1f77b4"/>
     <use xlink:href="#m2adbce16b9" x="222.966942" y="218.68409" style="fill: #1f77b4; stroke: #1f77b4"/>
     <use xlink:href="#m2adbce16b9" x="228.090909" y="171.515979" style="fill: #1f77b4; stroke: #1f77b4"/>
     <use xlink:href="#m2adbce16b9" x="233.214876" y="185.928458" style="fill: #1f77b4; stroke: #1f77b4"/>
     <use xlink:href="#m2adbce16b9" x="238.338843" y="167.192236" style="fill: #1f77b4; stroke: #1f77b4"/>
     <use xlink:href="#m2adbce16b9" x="243.46281" y="203.616499" style="fill: #1f77b4; stroke: #1f77b4"/>
     <use xlink:href="#m2adbce16b9" x="248.586777" y="164.964853" style="fill: #1f77b4; stroke: #1f77b4"/>
     <use xlink:href="#m2adbce16b9" x="253.710744" y="173.08825" style="fill: #1f77b4; stroke: #1f77b4"/>
     <use xlink:href="#m2adbce16b9" x="258.834711" y="166.013033" style="fill: #1f77b4; stroke: #1f77b4"/>
     <use xlink:href="#m2adbce16b9" x="263.958678" y="163.78565" style="fill: #1f77b4; stroke: #1f77b4"/>
     <use xlink:href="#m2adbce16b9" x="269.082645" y="156.841456" style="fill: #1f77b4; stroke: #1f77b4"/>
     <use xlink:href="#m2adbce16b9" x="274.206612" y="174.791542" style="fill: #1f77b4; stroke: #1f77b4"/>
     <use xlink:href="#m2adbce16b9" x="279.330579" y="137.843189" style="fill: #1f77b4; stroke: #1f77b4"/>
     <use xlink:href="#m2adbce16b9" x="284.454545" y="141.642842" style="fill: #1f77b4; stroke: #1f77b4"/>
     <use xlink:href="#m2adbce16b9" x="289.578512" y="150.552374" style="fill: #1f77b4; stroke: #1f77b4"/>
     <use xlink:href="#m2adbce16b9" x="294.702479" y="135.484783" style="fill: #1f77b4; stroke: #1f77b4"/>
     <use xlink:href="#m2adbce16b9" x="299.826446" y="151.207487" style="fill: #1f77b4; stroke: #1f77b4"/>
     <use xlink:href="#m2adbce16b9" x="304.950413" y="178.067106" style="fill: #1f77b4; stroke: #1f77b4"/>
     <use xlink:href="#m2adbce16b9" x="310.07438" y="158.806794" style="fill: #1f77b4; stroke: #1f77b4"/>
     <use xlink:href="#m2adbce16b9" x="315.198347" y="161.427244" style="fill: #1f77b4; stroke: #1f77b4"/>
     <use xlink:href="#m2adbce16b9" x="320.322314" y="132.20922" style="fill: #1f77b4; stroke: #1f77b4"/>
     <use xlink:href="#m2adbce16b9" x="325.446281" y="148.718059" style="fill: #1f77b4; stroke: #1f77b4"/>
     <use xlink:href="#m2adbce16b9" x="330.570248" y="139.546482" style="fill: #1f77b4; stroke: #1f77b4"/>
     <use xlink:href="#m2adbce16b9" x="335.694215" y="158.806794" style="fill: #1f77b4; stroke: #1f77b4"/>
     <use xlink:href="#m2adbce16b9" x="340.818182" y="148.062946" style="fill: #1f77b4; stroke: #1f77b4"/>
     <use xlink:href="#m2adbce16b9" x="345.942149" y="138.760347" style="fill: #1f77b4; stroke: #1f77b4"/>
     <use xlink:href="#m2adbce16b9" x="351.066116" y="146.097608" style="fill: #1f77b4; stroke: #1f77b4"/>
     <use xlink:href="#m2adbce16b9" x="356.190083" y="251.83279" style="fill: #1f77b4; stroke: #1f77b4"/>
     <use xlink:href="#m2adbce16b9" x="361.31405" y="174.13643" style="fill: #1f77b4; stroke: #1f77b4"/>
     <use xlink:href="#m2adbce16b9" x="366.438017" y="160.772132" style="fill: #1f77b4; stroke: #1f77b4"/>
     <use xlink:href="#m2adbce16b9" x="371.561983" y="167.323258" style="fill: #1f77b4; stroke: #1f77b4"/>
     <use xlink:href="#m2adbce16b9" x="376.68595" y="175.446655" style="fill: #1f77b4; stroke: #1f77b4"/>
     <use xlink:href="#m2adbce16b9" x="381.809917" y="193.527764" style="fill: #1f77b4; stroke: #1f77b4"/>
     <use xlink:href="#m2adbce16b9" x="386.933884" y="140.070572" style="fill: #1f77b4; stroke: #1f77b4"/>
     <use xlink:href="#m2adbce16b9" x="392.057851" y="139.677504" style="fill: #1f77b4; stroke: #1f77b4"/>
     <use xlink:href="#m2adbce16b9" x="397.181818" y="152.648735" style="fill: #1f77b4; stroke: #1f77b4"/>
     <use xlink:href="#m2adbce16b9" x="402.305785" y="143.346135" style="fill: #1f77b4; stroke: #1f77b4"/>
     <use xlink:href="#m2adbce16b9" x="407.429752" y="150.683397" style="fill: #1f77b4; stroke: #1f77b4"/>
     <use xlink:href="#m2adbce16b9" x="412.553719" y="145.966586" style="fill: #1f77b4; stroke: #1f77b4"/>
     <use xlink:href="#m2adbce16b9" x="417.677686" y="124.216846" style="fill: #1f77b4; stroke: #1f77b4"/>
     <use xlink:href="#m2adbce16b9" x="422.801653" y="139.546482" style="fill: #1f77b4; stroke: #1f77b4"/>
     <use xlink:href="#m2adbce16b9" x="427.92562" y="136.532964" style="fill: #1f77b4; stroke: #1f77b4"/>
     <use xlink:href="#m2adbce16b9" x="433.049587" y="126.051161" style="fill: #1f77b4; stroke: #1f77b4"/>
     <use xlink:href="#m2adbce16b9" x="438.173554" y="130.505927" style="fill: #1f77b4; stroke: #1f77b4"/>
     <use xlink:href="#m2adbce16b9" x="443.297521" y="151.993622" style="fill: #1f77b4; stroke: #1f77b4"/>
     <use xlink:href="#m2adbce16b9" x="448.421488" y="122.251508" style="fill: #1f77b4; stroke: #1f77b4"/>
     <use xlink:href="#m2adbce16b9" x="453.545455" y="129.588769" style="fill: #1f77b4; stroke: #1f77b4"/>
     <use xlink:href="#m2adbce16b9" x="458.669421" y="134.305581" style="fill: #1f77b4; stroke: #1f77b4"/>
     <use xlink:href="#m2adbce16b9" x="463.793388" y="162.475425" style="fill: #1f77b4; stroke: #1f77b4"/>
     <use xlink:href="#m2adbce16b9" x="468.917355" y="128.016499" style="fill: #1f77b4; stroke: #1f77b4"/>
     <use xlink:href="#m2adbce16b9" x="474.041322" y="129.326724" style="fill: #1f77b4; stroke: #1f77b4"/>
     <use xlink:href="#m2adbce16b9" x="479.165289" y="162.21338" style="fill: #1f77b4; stroke: #1f77b4"/>
     <use xlink:href="#m2adbce16b9" x="484.289256" y="148.718059" style="fill: #1f77b4; stroke: #1f77b4"/>
     <use xlink:href="#m2adbce16b9" x="489.413223" y="151.33851" style="fill: #1f77b4; stroke: #1f77b4"/>
     <use xlink:href="#m2adbce16b9" x="494.53719" y="158.544749" style="fill: #1f77b4; stroke: #1f77b4"/>
     <use xlink:href="#m2adbce16b9" x="499.661157" y="108.625165" style="fill: #1f77b4; stroke: #1f77b4"/>
     <use xlink:href="#m2adbce16b9" x="504.785124" y="144.13227" style="fill: #1f77b4; stroke: #1f77b4"/>
     <use xlink:href="#m2adbce16b9" x="509.909091" y="125.789116" style="fill: #1f77b4; stroke: #1f77b4"/>
     <use xlink:href="#m2adbce16b9" x="515.033058" y="135.222738" style="fill: #1f77b4; stroke: #1f77b4"/>
     <use xlink:href="#m2adbce16b9" x="520.157025" y="240.040763" style="fill: #1f77b4; stroke: #1f77b4"/>
     <use xlink:href="#m2adbce16b9" x="525.280992" y="142.428977" style="fill: #1f77b4; stroke: #1f77b4"/>
     <use xlink:href="#m2adbce16b9" x="530.404959" y="149.242149" style="fill: #1f77b4; stroke: #1f77b4"/>
     <use xlink:href="#m2adbce16b9" x="535.528926" y="105.742669" style="fill: #1f77b4; stroke: #1f77b4"/>
     <use xlink:href="#m2adbce16b9" x="540.652893" y="153.696915" style="fill: #1f77b4; stroke: #1f77b4"/>
     <use xlink:href="#m2adbce16b9" x="545.77686" y="97.48825" style="fill: #1f77b4; stroke: #1f77b4"/>
     <use xlink:href="#m2adbce16b9" x="550.900826" y="100.1087" style="fill: #1f77b4; stroke: #1f77b4"/>
     <use xlink:href="#m2adbce16b9" x="556.024793" y="121.072305" style="fill: #1f77b4; stroke: #1f77b4"/>
     <use xlink:href="#m2adbce16b9" x="561.14876" y="86.744402" style="fill: #1f77b4; stroke: #1f77b4"/>
     <use xlink:href="#m2adbce16b9" x="566.272727" y="151.993622" style="fill: #1f77b4; stroke: #1f77b4"/>
     <use xlink:href="#m2adbce16b9" x="571.396694" y="137.319099" style="fill: #1f77b4; stroke: #1f77b4"/>
     <use xlink:href="#m2adbce16b9" x="576.520661" y="114.521179" style="fill: #1f77b4; stroke: #1f77b4"/>
     <use xlink:href="#m2adbce16b9" x="581.644628" y="83.992929" style="fill: #1f77b4; stroke: #1f77b4"/>
     <use xlink:href="#m2adbce16b9" x="586.768595" y="130.11286" style="fill: #1f77b4; stroke: #1f77b4"/>
     <use xlink:href="#m2adbce16b9" x="591.892562" y="109.93539" style="fill: #1f77b4; stroke: #1f77b4"/>
     <use xlink:href="#m2adbce16b9" x="597.016529" y="121.727418" style="fill: #1f77b4; stroke: #1f77b4"/>
     <use xlink:href="#m2adbce16b9" x="602.140496" y="120.155147" style="fill: #1f77b4; stroke: #1f77b4"/>
     <use xlink:href="#m2adbce16b9" x="607.264463" y="143.215113" style="fill: #1f77b4; stroke: #1f77b4"/>
     <use xlink:href="#m2adbce16b9" x="612.38843" y="88.18565" style="fill: #1f77b4; stroke: #1f77b4"/>
     <use xlink:href="#m2adbce16b9" x="617.512397" y="145.966586" style="fill: #1f77b4; stroke: #1f77b4"/>
     <use xlink:href="#m2adbce16b9" x="622.636364" y="105.611646" style="fill: #1f77b4; stroke: #1f77b4"/>
    </g>
   </g>
   <g id="line2d_24">
    <path d="M 115.363636 343.548562 
L 120.487603 369.36 
L 125.61157 347.217192 
L 130.735537 287.601941 
L 135.859504 304.372825 
L 140.983471 275.416846 
L 146.107438 296.511473 
L 151.231405 246.853934 
L 156.355372 346.56208 
L 161.479339 201.520139 
L 166.603306 282.754107 
L 171.727273 222.745789 
L 176.85124 212.263986 
L 181.975207 174.529497 
L 187.099174 225.759307 
L 192.22314 210.822738 
L 197.347107 180.949601 
L 202.471074 213.836256 
L 207.595041 180.556534 
L 212.719008 162.606447 
L 217.842975 157.365546 
L 222.966942 150.683397 
L 228.090909 151.993622 
L 233.214876 177.280971 
L 238.338843 138.891369 
L 243.46281 191.562426 
L 248.586777 176.625858 
L 253.710744 181.080624 
L 258.834711 246.722912 
L 263.958678 125.002981 
L 269.082645 139.153414 
L 274.206612 128.671612 
L 279.330579 180.556534 
L 284.454545 178.198128 
L 289.578512 138.891369 
L 294.702479 155.924298 
L 299.826446 155.924298 
L 304.950413 104.301421 
L 310.07438 183.045962 
L 315.198347 227.200555 
L 320.322314 126.968319 
L 325.446281 124.216846 
L 330.570248 107.576984 
L 335.694215 116.093449 
L 340.818182 125.002981 
L 345.942149 132.602288 
L 351.066116 173.481317 
L 356.190083 133.78149 
L 361.31405 115.700381 
L 366.438017 108.494142 
L 371.561983 129.326724 
L 376.68595 145.835563 
L 381.809917 212.395009 
L 386.933884 181.997782 
L 392.057851 147.538856 
L 397.181818 114.914246 
L 402.305785 126.837296 
L 407.429752 160.903154 
L 412.553719 121.33435 
L 417.677686 118.189809 
L 422.801653 164.571785 
L 427.92562 144.13227 
L 433.049587 110.721525 
L 438.173554 90.28201 
L 443.297521 105.742669 
L 448.421488 129.588769 
L 453.545455 107.970052 
L 458.669421 133.78149 
L 463.793388 202.044229 
L 468.917355 100.63279 
L 474.041322 120.679237 
L 479.165289 83.599861 
L 484.289256 109.4113 
L 489.413223 170.598821 
L 494.53719 183.570052 
L 499.661157 87.923605 
L 504.785124 101.549948 
L 509.909091 125.265026 
L 515.033058 109.542322 
L 520.157025 91.199168 
L 525.280992 96.964159 
L 530.404959 133.2574 
L 535.528926 105.218579 
L 540.652893 159.199861 
L 545.77686 88.70974 
L 550.900826 104.301421 
L 556.024793 100.894835 
L 561.14876 115.569359 
L 566.272727 84.385997 
L 571.396694 76.655667 
L 576.520661 66.96 
L 581.644628 135.091716 
L 586.768595 107.576984 
L 591.892562 109.149255 
L 597.016529 84.779064 
L 602.140496 131.16104 
L 607.264463 110.328458 
L 612.38843 80.586343 
L 617.512397 92.116326 
L 622.636364 100.1087 
" clip-path="url(#p98e1ec5f18)" style="fill: none; stroke: #ff7f0e; stroke-width: 1.5; stroke-linecap: square"/>
    <defs>
     <path id="m62dfc7508b" d="M 0 3 
C 0.795609 3 1.55874 2.683901 2.12132 2.12132 
C 2.683901 1.55874 3 0.795609 3 0 
C 3 -0.795609 2.683901 -1.55874 2.12132 -2.12132 
C 1.55874 -2.683901 0.795609 -3 0 -3 
C -0.795609 -3 -1.55874 -2.683901 -2.12132 -2.12132 
C -2.683901 -1.55874 -3 -0.795609 -3 0 
C -3 0.795609 -2.683901 1.55874 -2.12132 2.12132 
C -1.55874 2.683901 -0.795609 3 0 3 
z
" style="stroke: #ff7f0e"/>
    </defs>
    <g clip-path="url(#p98e1ec5f18)">
     <use xlink:href="#m62dfc7508b" x="115.363636" y="343.548562" style="fill: #ff7f0e; stroke: #ff7f0e"/>
     <use xlink:href="#m62dfc7508b" x="120.487603" y="369.36" style="fill: #ff7f0e; stroke: #ff7f0e"/>
     <use xlink:href="#m62dfc7508b" x="125.61157" y="347.217192" style="fill: #ff7f0e; stroke: #ff7f0e"/>
     <use xlink:href="#m62dfc7508b" x="130.735537" y="287.601941" style="fill: #ff7f0e; stroke: #ff7f0e"/>
     <use xlink:href="#m62dfc7508b" x="135.859504" y="304.372825" style="fill: #ff7f0e; stroke: #ff7f0e"/>
     <use xlink:href="#m62dfc7508b" x="140.983471" y="275.416846" style="fill: #ff7f0e; stroke: #ff7f0e"/>
     <use xlink:href="#m62dfc7508b" x="146.107438" y="296.511473" style="fill: #ff7f0e; stroke: #ff7f0e"/>
     <use xlink:href="#m62dfc7508b" x="151.231405" y="246.853934" style="fill: #ff7f0e; stroke: #ff7f0e"/>
     <use xlink:href="#m62dfc7508b" x="156.355372" y="346.56208" style="fill: #ff7f0e; stroke: #ff7f0e"/>
     <use xlink:href="#m62dfc7508b" x="161.479339" y="201.520139" style="fill: #ff7f0e; stroke: #ff7f0e"/>
     <use xlink:href="#m62dfc7508b" x="166.603306" y="282.754107" style="fill: #ff7f0e; stroke: #ff7f0e"/>
     <use xlink:href="#m62dfc7508b" x="171.727273" y="222.745789" style="fill: #ff7f0e; stroke: #ff7f0e"/>
     <use xlink:href="#m62dfc7508b" x="176.85124" y="212.263986" style="fill: #ff7f0e; stroke: #ff7f0e"/>
     <use xlink:href="#m62dfc7508b" x="181.975207" y="174.529497" style="fill: #ff7f0e; stroke: #ff7f0e"/>
     <use xlink:href="#m62dfc7508b" x="187.099174" y="225.759307" style="fill: #ff7f0e; stroke: #ff7f0e"/>
     <use xlink:href="#m62dfc7508b" x="192.22314" y="210.822738" style="fill: #ff7f0e; stroke: #ff7f0e"/>
     <use xlink:href="#m62dfc7508b" x="197.347107" y="180.949601" style="fill: #ff7f0e; stroke: #ff7f0e"/>
     <use xlink:href="#m62dfc7508b" x="202.471074" y="213.836256" style="fill: #ff7f0e; stroke: #ff7f0e"/>
     <use xlink:href="#m62dfc7508b" x="207.595041" y="180.556534" style="fill: #ff7f0e; stroke: #ff7f0e"/>
     <use xlink:href="#m62dfc7508b" x="212.719008" y="162.606447" style="fill: #ff7f0e; stroke: #ff7f0e"/>
     <use xlink:href="#m62dfc7508b" x="217.842975" y="157.365546" style="fill: #ff7f0e; stroke: #ff7f0e"/>
     <use xlink:href="#m62dfc7508b" x="222.966942" y="150.683397" style="fill: #ff7f0e; stroke: #ff7f0e"/>
     <use xlink:href="#m62dfc7508b" x="228.090909" y="151.993622" style="fill: #ff7f0e; stroke: #ff7f0e"/>
     <use xlink:href="#m62dfc7508b" x="233.214876" y="177.280971" style="fill: #ff7f0e; stroke: #ff7f0e"/>
     <use xlink:href="#m62dfc7508b" x="238.338843" y="138.891369" style="fill: #ff7f0e; stroke: #ff7f0e"/>
     <use xlink:href="#m62dfc7508b" x="243.46281" y="191.562426" style="fill: #ff7f0e; stroke: #ff7f0e"/>
     <use xlink:href="#m62dfc7508b" x="248.586777" y="176.625858" style="fill: #ff7f0e; stroke: #ff7f0e"/>
     <use xlink:href="#m62dfc7508b" x="253.710744" y="181.080624" style="fill: #ff7f0e; stroke: #ff7f0e"/>
     <use xlink:href="#m62dfc7508b" x="258.834711" y="246.722912" style="fill: #ff7f0e; stroke: #ff7f0e"/>
     <use xlink:href="#m62dfc7508b" x="263.958678" y="125.002981" style="fill: #ff7f0e; stroke: #ff7f0e"/>
     <use xlink:href="#m62dfc7508b" x="269.082645" y="139.153414" style="fill: #ff7f0e; stroke: #ff7f0e"/>
     <use xlink:href="#m62dfc7508b" x="274.206612" y="128.671612" style="fill: #ff7f0e; stroke: #ff7f0e"/>
     <use xlink:href="#m62dfc7508b" x="279.330579" y="180.556534" style="fill: #ff7f0e; stroke: #ff7f0e"/>
     <use xlink:href="#m62dfc7508b" x="284.454545" y="178.198128" style="fill: #ff7f0e; stroke: #ff7f0e"/>
     <use xlink:href="#m62dfc7508b" x="289.578512" y="138.891369" style="fill: #ff7f0e; stroke: #ff7f0e"/>
     <use xlink:href="#m62dfc7508b" x="294.702479" y="155.924298" style="fill: #ff7f0e; stroke: #ff7f0e"/>
     <use xlink:href="#m62dfc7508b" x="299.826446" y="155.924298" style="fill: #ff7f0e; stroke: #ff7f0e"/>
     <use xlink:href="#m62dfc7508b" x="304.950413" y="104.301421" style="fill: #ff7f0e; stroke: #ff7f0e"/>
     <use xlink:href="#m62dfc7508b" x="310.07438" y="183.045962" style="fill: #ff7f0e; stroke: #ff7f0e"/>
     <use xlink:href="#m62dfc7508b" x="315.198347" y="227.200555" style="fill: #ff7f0e; stroke: #ff7f0e"/>
     <use xlink:href="#m62dfc7508b" x="320.322314" y="126.968319" style="fill: #ff7f0e; stroke: #ff7f0e"/>
     <use xlink:href="#m62dfc7508b" x="325.446281" y="124.216846" style="fill: #ff7f0e; stroke: #ff7f0e"/>
     <use xlink:href="#m62dfc7508b" x="330.570248" y="107.576984" style="fill: #ff7f0e; stroke: #ff7f0e"/>
     <use xlink:href="#m62dfc7508b" x="335.694215" y="116.093449" style="fill: #ff7f0e; stroke: #ff7f0e"/>
     <use xlink:href="#m62dfc7508b" x="340.818182" y="125.002981" style="fill: #ff7f0e; stroke: #ff7f0e"/>
     <use xlink:href="#m62dfc7508b" x="345.942149" y="132.602288" style="fill: #ff7f0e; stroke: #ff7f0e"/>
     <use xlink:href="#m62dfc7508b" x="351.066116" y="173.481317" style="fill: #ff7f0e; stroke: #ff7f0e"/>
     <use xlink:href="#m62dfc7508b" x="356.190083" y="133.78149" style="fill: #ff7f0e; stroke: #ff7f0e"/>
     <use xlink:href="#m62dfc7508b" x="361.31405" y="115.700381" style="fill: #ff7f0e; stroke: #ff7f0e"/>
     <use xlink:href="#m62dfc7508b" x="366.438017" y="108.494142" style="fill: #ff7f0e; stroke: #ff7f0e"/>
     <use xlink:href="#m62dfc7508b" x="371.561983" y="129.326724" style="fill: #ff7f0e; stroke: #ff7f0e"/>
     <use xlink:href="#m62dfc7508b" x="376.68595" y="145.835563" style="fill: #ff7f0e; stroke: #ff7f0e"/>
     <use xlink:href="#m62dfc7508b" x="381.809917" y="212.395009" style="fill: #ff7f0e; stroke: #ff7f0e"/>
     <use xlink:href="#m62dfc7508b" x="386.933884" y="181.997782" style="fill: #ff7f0e; stroke: #ff7f0e"/>
     <use xlink:href="#m62dfc7508b" x="392.057851" y="147.538856" style="fill: #ff7f0e; stroke: #ff7f0e"/>
     <use xlink:href="#m62dfc7508b" x="397.181818" y="114.914246" style="fill: #ff7f0e; stroke: #ff7f0e"/>
     <use xlink:href="#m62dfc7508b" x="402.305785" y="126.837296" style="fill: #ff7f0e; stroke: #ff7f0e"/>
     <use xlink:href="#m62dfc7508b" x="407.429752" y="160.903154" style="fill: #ff7f0e; stroke: #ff7f0e"/>
     <use xlink:href="#m62dfc7508b" x="412.553719" y="121.33435" style="fill: #ff7f0e; stroke: #ff7f0e"/>
     <use xlink:href="#m62dfc7508b" x="417.677686" y="118.189809" style="fill: #ff7f0e; stroke: #ff7f0e"/>
     <use xlink:href="#m62dfc7508b" x="422.801653" y="164.571785" style="fill: #ff7f0e; stroke: #ff7f0e"/>
     <use xlink:href="#m62dfc7508b" x="427.92562" y="144.13227" style="fill: #ff7f0e; stroke: #ff7f0e"/>
     <use xlink:href="#m62dfc7508b" x="433.049587" y="110.721525" style="fill: #ff7f0e; stroke: #ff7f0e"/>
     <use xlink:href="#m62dfc7508b" x="438.173554" y="90.28201" style="fill: #ff7f0e; stroke: #ff7f0e"/>
     <use xlink:href="#m62dfc7508b" x="443.297521" y="105.742669" style="fill: #ff7f0e; stroke: #ff7f0e"/>
     <use xlink:href="#m62dfc7508b" x="448.421488" y="129.588769" style="fill: #ff7f0e; stroke: #ff7f0e"/>
     <use xlink:href="#m62dfc7508b" x="453.545455" y="107.970052" style="fill: #ff7f0e; stroke: #ff7f0e"/>
     <use xlink:href="#m62dfc7508b" x="458.669421" y="133.78149" style="fill: #ff7f0e; stroke: #ff7f0e"/>
     <use xlink:href="#m62dfc7508b" x="463.793388" y="202.044229" style="fill: #ff7f0e; stroke: #ff7f0e"/>
     <use xlink:href="#m62dfc7508b" x="468.917355" y="100.63279" style="fill: #ff7f0e; stroke: #ff7f0e"/>
     <use xlink:href="#m62dfc7508b" x="474.041322" y="120.679237" style="fill: #ff7f0e; stroke: #ff7f0e"/>
     <use xlink:href="#m62dfc7508b" x="479.165289" y="83.599861" style="fill: #ff7f0e; stroke: #ff7f0e"/>
     <use xlink:href="#m62dfc7508b" x="484.289256" y="109.4113" style="fill: #ff7f0e; stroke: #ff7f0e"/>
     <use xlink:href="#m62dfc7508b" x="489.413223" y="170.598821" style="fill: #ff7f0e; stroke: #ff7f0e"/>
     <use xlink:href="#m62dfc7508b" x="494.53719" y="183.570052" style="fill: #ff7f0e; stroke: #ff7f0e"/>
     <use xlink:href="#m62dfc7508b" x="499.661157" y="87.923605" style="fill: #ff7f0e; stroke: #ff7f0e"/>
     <use xlink:href="#m62dfc7508b" x="504.785124" y="101.549948" style="fill: #ff7f0e; stroke: #ff7f0e"/>
     <use xlink:href="#m62dfc7508b" x="509.909091" y="125.265026" style="fill: #ff7f0e; stroke: #ff7f0e"/>
     <use xlink:href="#m62dfc7508b" x="515.033058" y="109.542322" style="fill: #ff7f0e; stroke: #ff7f0e"/>
     <use xlink:href="#m62dfc7508b" x="520.157025" y="91.199168" style="fill: #ff7f0e; stroke: #ff7f0e"/>
     <use xlink:href="#m62dfc7508b" x="525.280992" y="96.964159" style="fill: #ff7f0e; stroke: #ff7f0e"/>
     <use xlink:href="#m62dfc7508b" x="530.404959" y="133.2574" style="fill: #ff7f0e; stroke: #ff7f0e"/>
     <use xlink:href="#m62dfc7508b" x="535.528926" y="105.218579" style="fill: #ff7f0e; stroke: #ff7f0e"/>
     <use xlink:href="#m62dfc7508b" x="540.652893" y="159.199861" style="fill: #ff7f0e; stroke: #ff7f0e"/>
     <use xlink:href="#m62dfc7508b" x="545.77686" y="88.70974" style="fill: #ff7f0e; stroke: #ff7f0e"/>
     <use xlink:href="#m62dfc7508b" x="550.900826" y="104.301421" style="fill: #ff7f0e; stroke: #ff7f0e"/>
     <use xlink:href="#m62dfc7508b" x="556.024793" y="100.894835" style="fill: #ff7f0e; stroke: #ff7f0e"/>
     <use xlink:href="#m62dfc7508b" x="561.14876" y="115.569359" style="fill: #ff7f0e; stroke: #ff7f0e"/>
     <use xlink:href="#m62dfc7508b" x="566.272727" y="84.385997" style="fill: #ff7f0e; stroke: #ff7f0e"/>
     <use xlink:href="#m62dfc7508b" x="571.396694" y="76.655667" style="fill: #ff7f0e; stroke: #ff7f0e"/>
     <use xlink:href="#m62dfc7508b" x="576.520661" y="66.96" style="fill: #ff7f0e; stroke: #ff7f0e"/>
     <use xlink:href="#m62dfc7508b" x="581.644628" y="135.091716" style="fill: #ff7f0e; stroke: #ff7f0e"/>
     <use xlink:href="#m62dfc7508b" x="586.768595" y="107.576984" style="fill: #ff7f0e; stroke: #ff7f0e"/>
     <use xlink:href="#m62dfc7508b" x="591.892562" y="109.149255" style="fill: #ff7f0e; stroke: #ff7f0e"/>
     <use xlink:href="#m62dfc7508b" x="597.016529" y="84.779064" style="fill: #ff7f0e; stroke: #ff7f0e"/>
     <use xlink:href="#m62dfc7508b" x="602.140496" y="131.16104" style="fill: #ff7f0e; stroke: #ff7f0e"/>
     <use xlink:href="#m62dfc7508b" x="607.264463" y="110.328458" style="fill: #ff7f0e; stroke: #ff7f0e"/>
     <use xlink:href="#m62dfc7508b" x="612.38843" y="80.586343" style="fill: #ff7f0e; stroke: #ff7f0e"/>
     <use xlink:href="#m62dfc7508b" x="617.512397" y="92.116326" style="fill: #ff7f0e; stroke: #ff7f0e"/>
     <use xlink:href="#m62dfc7508b" x="622.636364" y="100.1087" style="fill: #ff7f0e; stroke: #ff7f0e"/>
    </g>
   </g>
   <g id="patch_3">
    <path d="M 90 384.48 
L 90 51.84 
" style="fill: none; stroke: #000000; stroke-width: 0.8; stroke-linejoin: miter; stroke-linecap: square"/>
   </g>
   <g id="patch_4">
    <path d="M 648 384.48 
L 648 51.84 
" style="fill: none; stroke: #000000; stroke-width: 0.8; stroke-linejoin: miter; stroke-linecap: square"/>
   </g>
   <g id="patch_5">
    <path d="M 90 384.48 
L 648 384.48 
" style="fill: none; stroke: #000000; stroke-width: 0.8; stroke-linejoin: miter; stroke-linecap: square"/>
   </g>
   <g id="patch_6">
    <path d="M 90 51.84 
L 648 51.84 
" style="fill: none; stroke: #000000; stroke-width: 0.8; stroke-linejoin: miter; stroke-linecap: square"/>
   </g>
   <g id="text_14">
    <!-- F1 Score Comparison: GraphConv and SAGEConv (with dropout) -->
    <g transform="translate(176.295 45.84) scale(0.12 -0.12)">
     <defs>
      <path id="DejaVuSans-43" d="M 4122 4306 
L 4122 3641 
Q 3803 3938 3442 4084 
Q 3081 4231 2675 4231 
Q 1875 4231 1450 3742 
Q 1025 3253 1025 2328 
Q 1025 1406 1450 917 
Q 1875 428 2675 428 
Q 3081 428 3442 575 
Q 3803 722 4122 1019 
L 4122 359 
Q 3791 134 3420 21 
Q 3050 -91 2638 -91 
Q 1578 -91 968 557 
Q 359 1206 359 2328 
Q 359 3453 968 4101 
Q 1578 4750 2638 4750 
Q 3056 4750 3426 4639 
Q 3797 4528 4122 4306 
z
" transform="scale(0.015625)"/>
      <path id="DejaVuSans-6d" d="M 3328 2828 
Q 3544 3216 3844 3400 
Q 4144 3584 4550 3584 
Q 5097 3584 5394 3201 
Q 5691 2819 5691 2113 
L 5691 0 
L 5113 0 
L 5113 2094 
Q 5113 2597 4934 2840 
Q 4756 3084 4391 3084 
Q 3944 3084 3684 2787 
Q 3425 2491 3425 1978 
L 3425 0 
L 2847 0 
L 2847 2094 
Q 2847 2600 2669 2842 
Q 2491 3084 2119 3084 
Q 1678 3084 1418 2786 
Q 1159 2488 1159 1978 
L 1159 0 
L 581 0 
L 581 3500 
L 1159 3500 
L 1159 2956 
Q 1356 3278 1631 3431 
Q 1906 3584 2284 3584 
Q 2666 3584 2933 3390 
Q 3200 3197 3328 2828 
z
" transform="scale(0.015625)"/>
      <path id="DejaVuSans-61" d="M 2194 1759 
Q 1497 1759 1228 1600 
Q 959 1441 959 1056 
Q 959 750 1161 570 
Q 1363 391 1709 391 
Q 2188 391 2477 730 
Q 2766 1069 2766 1631 
L 2766 1759 
L 2194 1759 
z
M 3341 1997 
L 3341 0 
L 2766 0 
L 2766 531 
Q 2569 213 2275 61 
Q 1981 -91 1556 -91 
Q 1019 -91 701 211 
Q 384 513 384 1019 
Q 384 1609 779 1909 
Q 1175 2209 1959 2209 
L 2766 2209 
L 2766 2266 
Q 2766 2663 2505 2880 
Q 2244 3097 1772 3097 
Q 1472 3097 1187 3025 
Q 903 2953 641 2809 
L 641 3341 
Q 956 3463 1253 3523 
Q 1550 3584 1831 3584 
Q 2591 3584 2966 3190 
Q 3341 2797 3341 1997 
z
" transform="scale(0.015625)"/>
      <path id="DejaVuSans-69" d="M 603 3500 
L 1178 3500 
L 1178 0 
L 603 0 
L 603 3500 
z
M 603 4863 
L 1178 4863 
L 1178 4134 
L 603 4134 
L 603 4863 
z
" transform="scale(0.015625)"/>
      <path id="DejaVuSans-73" d="M 2834 3397 
L 2834 2853 
Q 2591 2978 2328 3040 
Q 2066 3103 1784 3103 
Q 1356 3103 1142 2972 
Q 928 2841 928 2578 
Q 928 2378 1081 2264 
Q 1234 2150 1697 2047 
L 1894 2003 
Q 2506 1872 2764 1633 
Q 3022 1394 3022 966 
Q 3022 478 2636 193 
Q 2250 -91 1575 -91 
Q 1294 -91 989 -36 
Q 684 19 347 128 
L 347 722 
Q 666 556 975 473 
Q 1284 391 1588 391 
Q 1994 391 2212 530 
Q 2431 669 2431 922 
Q 2431 1156 2273 1281 
Q 2116 1406 1581 1522 
L 1381 1569 
Q 847 1681 609 1914 
Q 372 2147 372 2553 
Q 372 3047 722 3315 
Q 1072 3584 1716 3584 
Q 2034 3584 2315 3537 
Q 2597 3491 2834 3397 
z
" transform="scale(0.015625)"/>
      <path id="DejaVuSans-6e" d="M 3513 2113 
L 3513 0 
L 2938 0 
L 2938 2094 
Q 2938 2591 2744 2837 
Q 2550 3084 2163 3084 
Q 1697 3084 1428 2787 
Q 1159 2491 1159 1978 
L 1159 0 
L 581 0 
L 581 3500 
L 1159 3500 
L 1159 2956 
Q 1366 3272 1645 3428 
Q 1925 3584 2291 3584 
Q 2894 3584 3203 3211 
Q 3513 2838 3513 2113 
z
" transform="scale(0.015625)"/>
      <path id="DejaVuSans-3a" d="M 750 794 
L 1409 794 
L 1409 0 
L 750 0 
L 750 794 
z
M 750 3309 
L 1409 3309 
L 1409 2516 
L 750 2516 
L 750 3309 
z
" transform="scale(0.015625)"/>
      <path id="DejaVuSans-47" d="M 3809 666 
L 3809 1919 
L 2778 1919 
L 2778 2438 
L 4434 2438 
L 4434 434 
Q 4069 175 3628 42 
Q 3188 -91 2688 -91 
Q 1594 -91 976 548 
Q 359 1188 359 2328 
Q 359 3472 976 4111 
Q 1594 4750 2688 4750 
Q 3144 4750 3555 4637 
Q 3966 4525 4313 4306 
L 4313 3634 
Q 3963 3931 3569 4081 
Q 3175 4231 2741 4231 
Q 1884 4231 1454 3753 
Q 1025 3275 1025 2328 
Q 1025 1384 1454 906 
Q 1884 428 2741 428 
Q 3075 428 3337 486 
Q 3600 544 3809 666 
z
" transform="scale(0.015625)"/>
      <path id="DejaVuSans-76" d="M 191 3500 
L 800 3500 
L 1894 563 
L 2988 3500 
L 3597 3500 
L 2284 0 
L 1503 0 
L 191 3500 
z
" transform="scale(0.015625)"/>
      <path id="DejaVuSans-64" d="M 2906 2969 
L 2906 4863 
L 3481 4863 
L 3481 0 
L 2906 0 
L 2906 525 
Q 2725 213 2448 61 
Q 2172 -91 1784 -91 
Q 1150 -91 751 415 
Q 353 922 353 1747 
Q 353 2572 751 3078 
Q 1150 3584 1784 3584 
Q 2172 3584 2448 3432 
Q 2725 3281 2906 2969 
z
M 947 1747 
Q 947 1113 1208 752 
Q 1469 391 1925 391 
Q 2381 391 2643 752 
Q 2906 1113 2906 1747 
Q 2906 2381 2643 2742 
Q 2381 3103 1925 3103 
Q 1469 3103 1208 2742 
Q 947 2381 947 1747 
z
" transform="scale(0.015625)"/>
      <path id="DejaVuSans-41" d="M 2188 4044 
L 1331 1722 
L 3047 1722 
L 2188 4044 
z
M 1831 4666 
L 2547 4666 
L 4325 0 
L 3669 0 
L 3244 1197 
L 1141 1197 
L 716 0 
L 50 0 
L 1831 4666 
z
" transform="scale(0.015625)"/>
      <path id="DejaVuSans-28" d="M 1984 4856 
Q 1566 4138 1362 3434 
Q 1159 2731 1159 2009 
Q 1159 1288 1364 580 
Q 1569 -128 1984 -844 
L 1484 -844 
Q 1016 -109 783 600 
Q 550 1309 550 2009 
Q 550 2706 781 3412 
Q 1013 4119 1484 4856 
L 1984 4856 
z
" transform="scale(0.015625)"/>
      <path id="DejaVuSans-77" d="M 269 3500 
L 844 3500 
L 1563 769 
L 2278 3500 
L 2956 3500 
L 3675 769 
L 4391 3500 
L 4966 3500 
L 4050 0 
L 3372 0 
L 2619 2869 
L 1863 0 
L 1184 0 
L 269 3500 
z
" transform="scale(0.015625)"/>
      <path id="DejaVuSans-74" d="M 1172 4494 
L 1172 3500 
L 2356 3500 
L 2356 3053 
L 1172 3053 
L 1172 1153 
Q 1172 725 1289 603 
Q 1406 481 1766 481 
L 2356 481 
L 2356 0 
L 1766 0 
Q 1100 0 847 248 
Q 594 497 594 1153 
L 594 3053 
L 172 3053 
L 172 3500 
L 594 3500 
L 594 4494 
L 1172 4494 
z
" transform="scale(0.015625)"/>
      <path id="DejaVuSans-75" d="M 544 1381 
L 544 3500 
L 1119 3500 
L 1119 1403 
Q 1119 906 1312 657 
Q 1506 409 1894 409 
Q 2359 409 2629 706 
Q 2900 1003 2900 1516 
L 2900 3500 
L 3475 3500 
L 3475 0 
L 2900 0 
L 2900 538 
Q 2691 219 2414 64 
Q 2138 -91 1772 -91 
Q 1169 -91 856 284 
Q 544 659 544 1381 
z
M 1991 3584 
L 1991 3584 
z
" transform="scale(0.015625)"/>
      <path id="DejaVuSans-29" d="M 513 4856 
L 1013 4856 
Q 1481 4119 1714 3412 
Q 1947 2706 1947 2009 
Q 1947 1309 1714 600 
Q 1481 -109 1013 -844 
L 513 -844 
Q 928 -128 1133 580 
Q 1338 1288 1338 2009 
Q 1338 2731 1133 3434 
Q 928 4138 513 4856 
z
" transform="scale(0.015625)"/>
     </defs>
     <use xlink:href="#DejaVuSans-46"/>
     <use xlink:href="#DejaVuSans-31" x="57.519531"/>
     <use xlink:href="#DejaVuSans-20" x="121.142578"/>
     <use xlink:href="#DejaVuSans-53" x="152.929688"/>
     <use xlink:href="#DejaVuSans-63" x="216.40625"/>
     <use xlink:href="#DejaVuSans-6f" x="271.386719"/>
     <use xlink:href="#DejaVuSans-72" x="332.568359"/>
     <use xlink:href="#DejaVuSans-65" x="371.431641"/>
     <use xlink:href="#DejaVuSans-20" x="432.955078"/>
     <use xlink:href="#DejaVuSans-43" x="464.742188"/>
     <use xlink:href="#DejaVuSans-6f" x="534.566406"/>
     <use xlink:href="#DejaVuSans-6d" x="595.748047"/>
     <use xlink:href="#DejaVuSans-70" x="693.160156"/>
     <use xlink:href="#DejaVuSans-61" x="756.636719"/>
     <use xlink:href="#DejaVuSans-72" x="817.916016"/>
     <use xlink:href="#DejaVuSans-69" x="859.029297"/>
     <use xlink:href="#DejaVuSans-73" x="886.8125"/>
     <use xlink:href="#DejaVuSans-6f" x="938.912109"/>
     <use xlink:href="#DejaVuSans-6e" x="1000.09375"/>
     <use xlink:href="#DejaVuSans-3a" x="1063.472656"/>
     <use xlink:href="#DejaVuSans-20" x="1097.164062"/>
     <use xlink:href="#DejaVuSans-47" x="1128.951172"/>
     <use xlink:href="#DejaVuSans-72" x="1206.441406"/>
     <use xlink:href="#DejaVuSans-61" x="1247.554688"/>
     <use xlink:href="#DejaVuSans-70" x="1308.833984"/>
     <use xlink:href="#DejaVuSans-68" x="1372.310547"/>
     <use xlink:href="#DejaVuSans-43" x="1435.689453"/>
     <use xlink:href="#DejaVuSans-6f" x="1505.513672"/>
     <use xlink:href="#DejaVuSans-6e" x="1566.695312"/>
     <use xlink:href="#DejaVuSans-76" x="1630.074219"/>
     <use xlink:href="#DejaVuSans-20" x="1689.253906"/>
     <use xlink:href="#DejaVuSans-61" x="1721.041016"/>
     <use xlink:href="#DejaVuSans-6e" x="1782.320312"/>
     <use xlink:href="#DejaVuSans-64" x="1845.699219"/>
     <use xlink:href="#DejaVuSans-20" x="1909.175781"/>
     <use xlink:href="#DejaVuSans-53" x="1940.962891"/>
     <use xlink:href="#DejaVuSans-41" x="2006.314453"/>
     <use xlink:href="#DejaVuSans-47" x="2072.972656"/>
     <use xlink:href="#DejaVuSans-45" x="2150.462891"/>
     <use xlink:href="#DejaVuSans-43" x="2213.646484"/>
     <use xlink:href="#DejaVuSans-6f" x="2283.470703"/>
     <use xlink:href="#DejaVuSans-6e" x="2344.652344"/>
     <use xlink:href="#DejaVuSans-76" x="2408.03125"/>
     <use xlink:href="#DejaVuSans-20" x="2467.210938"/>
     <use xlink:href="#DejaVuSans-28" x="2498.998047"/>
     <use xlink:href="#DejaVuSans-77" x="2538.011719"/>
     <use xlink:href="#DejaVuSans-69" x="2619.798828"/>
     <use xlink:href="#DejaVuSans-74" x="2647.582031"/>
     <use xlink:href="#DejaVuSans-68" x="2686.791016"/>
     <use xlink:href="#DejaVuSans-20" x="2750.169922"/>
     <use xlink:href="#DejaVuSans-64" x="2781.957031"/>
     <use xlink:href="#DejaVuSans-72" x="2845.433594"/>
     <use xlink:href="#DejaVuSans-6f" x="2884.296875"/>
     <use xlink:href="#DejaVuSans-70" x="2945.478516"/>
     <use xlink:href="#DejaVuSans-6f" x="3008.955078"/>
     <use xlink:href="#DejaVuSans-75" x="3070.136719"/>
     <use xlink:href="#DejaVuSans-74" x="3133.515625"/>
     <use xlink:href="#DejaVuSans-29" x="3172.724609"/>
    </g>
   </g>
   <g id="legend_1">
    <g id="patch_7">
     <path d="M 97 89.7525 
L 293.340625 89.7525 
Q 295.340625 89.7525 295.340625 87.7525 
L 295.340625 58.84 
Q 295.340625 56.84 293.340625 56.84 
L 97 56.84 
Q 95 56.84 95 58.84 
L 95 87.7525 
Q 95 89.7525 97 89.7525 
z
" style="fill: #ffffff; opacity: 0.8; stroke: #cccccc; stroke-linejoin: miter"/>
    </g>
    <g id="line2d_25">
     <path d="M 99 64.938438 
L 109 64.938438 
L 119 64.938438 
" style="fill: none; stroke: #1f77b4; stroke-width: 1.5; stroke-linecap: square"/>
     <g>
      <use xlink:href="#m2adbce16b9" x="109" y="64.938438" style="fill: #1f77b4; stroke: #1f77b4"/>
     </g>
    </g>
    <g id="text_15">
     <!-- GraphConv_2layers with dropout -->
     <g transform="translate(127 68.438438) scale(0.1 -0.1)">
      <defs>
       <path id="DejaVuSans-5f" d="M 3263 -1063 
L 3263 -1509 
L -63 -1509 
L -63 -1063 
L 3263 -1063 
z
" transform="scale(0.015625)"/>
       <path id="DejaVuSans-6c" d="M 603 4863 
L 1178 4863 
L 1178 0 
L 603 0 
L 603 4863 
z
" transform="scale(0.015625)"/>
       <path id="DejaVuSans-79" d="M 2059 -325 
Q 1816 -950 1584 -1140 
Q 1353 -1331 966 -1331 
L 506 -1331 
L 506 -850 
L 844 -850 
Q 1081 -850 1212 -737 
Q 1344 -625 1503 -206 
L 1606 56 
L 191 3500 
L 800 3500 
L 1894 763 
L 2988 3500 
L 3597 3500 
L 2059 -325 
z
" transform="scale(0.015625)"/>
      </defs>
      <use xlink:href="#DejaVuSans-47"/>
      <use xlink:href="#DejaVuSans-72" x="77.490234"/>
      <use xlink:href="#DejaVuSans-61" x="118.603516"/>
      <use xlink:href="#DejaVuSans-70" x="179.882812"/>
      <use xlink:href="#DejaVuSans-68" x="243.359375"/>
      <use xlink:href="#DejaVuSans-43" x="306.738281"/>
      <use xlink:href="#DejaVuSans-6f" x="376.5625"/>
      <use xlink:href="#DejaVuSans-6e" x="437.744141"/>
      <use xlink:href="#DejaVuSans-76" x="501.123047"/>
      <use xlink:href="#DejaVuSans-5f" x="560.302734"/>
      <use xlink:href="#DejaVuSans-32" x="610.302734"/>
      <use xlink:href="#DejaVuSans-6c" x="673.925781"/>
      <use xlink:href="#DejaVuSans-61" x="701.708984"/>
      <use xlink:href="#DejaVuSans-79" x="762.988281"/>
      <use xlink:href="#DejaVuSans-65" x="822.167969"/>
      <use xlink:href="#DejaVuSans-72" x="883.691406"/>
      <use xlink:href="#DejaVuSans-73" x="924.804688"/>
      <use xlink:href="#DejaVuSans-20" x="976.904297"/>
      <use xlink:href="#DejaVuSans-77" x="1008.691406"/>
      <use xlink:href="#DejaVuSans-69" x="1090.478516"/>
      <use xlink:href="#DejaVuSans-74" x="1118.261719"/>
      <use xlink:href="#DejaVuSans-68" x="1157.470703"/>
      <use xlink:href="#DejaVuSans-20" x="1220.849609"/>
      <use xlink:href="#DejaVuSans-64" x="1252.636719"/>
      <use xlink:href="#DejaVuSans-72" x="1316.113281"/>
      <use xlink:href="#DejaVuSans-6f" x="1354.976562"/>
      <use xlink:href="#DejaVuSans-70" x="1416.158203"/>
      <use xlink:href="#DejaVuSans-6f" x="1479.634766"/>
      <use xlink:href="#DejaVuSans-75" x="1540.816406"/>
      <use xlink:href="#DejaVuSans-74" x="1604.195312"/>
     </g>
    </g>
    <g id="line2d_26">
     <path d="M 99 79.894688 
L 109 79.894688 
L 119 79.894688 
" style="fill: none; stroke: #ff7f0e; stroke-width: 1.5; stroke-linecap: square"/>
     <g>
      <use xlink:href="#m62dfc7508b" x="109" y="79.894688" style="fill: #ff7f0e; stroke: #ff7f0e"/>
     </g>
    </g>
    <g id="text_16">
     <!-- SAGEConv_2layers with dropout -->
     <g transform="translate(127 83.394688) scale(0.1 -0.1)">
      <use xlink:href="#DejaVuSans-53"/>
      <use xlink:href="#DejaVuSans-41" x="65.351562"/>
      <use xlink:href="#DejaVuSans-47" x="132.009766"/>
      <use xlink:href="#DejaVuSans-45" x="209.5"/>
      <use xlink:href="#DejaVuSans-43" x="272.683594"/>
      <use xlink:href="#DejaVuSans-6f" x="342.507812"/>
      <use xlink:href="#DejaVuSans-6e" x="403.689453"/>
      <use xlink:href="#DejaVuSans-76" x="467.068359"/>
      <use xlink:href="#DejaVuSans-5f" x="526.248047"/>
      <use xlink:href="#DejaVuSans-32" x="576.248047"/>
      <use xlink:href="#DejaVuSans-6c" x="639.871094"/>
      <use xlink:href="#DejaVuSans-61" x="667.654297"/>
      <use xlink:href="#DejaVuSans-79" x="728.933594"/>
      <use xlink:href="#DejaVuSans-65" x="788.113281"/>
      <use xlink:href="#DejaVuSans-72" x="849.636719"/>
      <use xlink:href="#DejaVuSans-73" x="890.75"/>
      <use xlink:href="#DejaVuSans-20" x="942.849609"/>
      <use xlink:href="#DejaVuSans-77" x="974.636719"/>
      <use xlink:href="#DejaVuSans-69" x="1056.423828"/>
      <use xlink:href="#DejaVuSans-74" x="1084.207031"/>
      <use xlink:href="#DejaVuSans-68" x="1123.416016"/>
      <use xlink:href="#DejaVuSans-20" x="1186.794922"/>
      <use xlink:href="#DejaVuSans-64" x="1218.582031"/>
      <use xlink:href="#DejaVuSans-72" x="1282.058594"/>
      <use xlink:href="#DejaVuSans-6f" x="1320.921875"/>
      <use xlink:href="#DejaVuSans-70" x="1382.103516"/>
      <use xlink:href="#DejaVuSans-6f" x="1445.580078"/>
      <use xlink:href="#DejaVuSans-75" x="1506.761719"/>
      <use xlink:href="#DejaVuSans-74" x="1570.140625"/>
     </g>
    </g>
   </g>
  </g>
 </g>
 <defs>
  <clipPath id="p98e1ec5f18">
   <rect x="90" y="51.84" width="558" height="332.64"/>
  </clipPath>
 </defs>
</svg>
